<?xml version="1.0" encoding="UTF-8"?>
<svg width="624px" height="154px" viewBox="0 0 624 154" version="1.1" xmlns="http://www.w3.org/2000/svg">
    <title>NFR Logo</title>
    <g id="Page-1" stroke="none" stroke-width="1" fill="none" fill-rule="evenodd">
        <g id="Artboard" transform="translate(-70.000000, -350.000000)" fill="#000000" fill-rule="nonzero">
            <g id="nfr" transform="translate(70.000000, 350.000000)">
                <polygon id="Path"
                         points="203.766129 17.4755245 220.120968 17.4755245 220.120968 22.5244755 203.766129 22.5244755 203.766129 39 198 39 198 1 224 1 224 6.04895105 203.766129 6.04895105"/>
                <path d="M249,12 L249,38.278626 L243.853808,38.278626 L243.853808,12 L249,12 Z M231.198704,28.7977099 C231.198704,29.9654342 231.373635,30.9959685 231.723826,31.889313 C232.108806,32.7823354 232.68644,33.4866412 233.456727,34.0019084 C234.261805,34.4827171 235.312048,34.7232824 236.607457,34.7232824 C237.726295,34.7232824 238.724026,34.5687023 239.600322,34.259542 C240.509439,33.9503817 241.280712,33.5037094 241.910858,32.9198473 C242.541004,32.3015267 243.013613,31.5972209 243.328686,30.8072519 C243.679861,30.0169609 243.853808,29.1239385 243.853808,28.1278626 L243.958832,28.1278626 L243.958832,34.980916 L243.748784,34.980916 C243.049715,35.9769919 241.97978,36.9044728 240.545541,37.7633588 C239.111303,38.5877863 237.237275,39 234.927068,39 C233.281468,39 231.776338,38.6908397 230.411022,38.0725191 C229.080495,37.4541985 228.012857,36.4922591 227.20778,35.1870229 C226.402374,33.8473282 226,32.181083 226,30.1889313 L226,12 L231.198704,12 L231.198704,28.7977099 Z"
                      id="Shape"/>
                <path d="M255,39 L255,12.7714286 L260.146119,12.7714286 L260.146119,39 L255,39 Z M272.80137,22.1828571 C272.80137,21.0170357 272.607734,19.9884643 272.223744,19.0971429 C271.872574,18.2055 271.294949,17.5198929 270.490868,17.04 C269.719606,16.5597857 268.685788,16.32 267.392694,16.32 C266.270263,16.32 265.256136,16.4742857 264.347032,16.7828571 C263.470748,17.0914286 262.719178,17.5369286 262.089041,18.12 C261.458904,18.70275 260.96661,19.4057143 260.618721,20.2285714 C260.303653,21.0170357 260.146119,21.9083571 260.146119,22.9028571 L258.360731,22.9028571 L258.360731,16.0628571 L260.251142,16.0628571 C260.9502,15.0683571 262.016838,14.1426429 263.454338,13.2857143 C264.888556,12.4284643 266.762557,12 269.073059,12 C270.753425,12 272.256564,12.3256071 273.589041,12.9771429 C274.918236,13.5942857 275.984874,14.5540714 276.792237,15.8571429 C277.596318,17.1255 278,18.7712143 278,20.7942857 L278,39 L272.80137,39 L272.80137,22.1828571 Z"
                      id="Shape"/>
                <path d="M303.703704,1 L309,1 L309,38.2702332 L303.703704,38.2702332 L303.703704,1 Z M303.596708,14.9176955 L305.041152,14.9176955 L305.041152,35.1426612 L303.596708,35.1426612 C303.135288,35.7333162 302.510031,36.3415638 301.72428,36.9670782 C300.975309,37.5577332 300.049126,38.0441358 298.942387,38.4266118 C297.872428,38.808762 296.625257,39 295.197531,39 C292.880401,39 290.793981,38.4438786 288.938272,37.3319616 C287.119342,36.2197188 285.674897,34.6213992 284.604938,32.5363512 C283.534979,30.4164438 283,27.8971193 283,24.9780521 C283,22.7887517 283.30427,20.8252229 283.909465,19.0877915 C284.518004,17.3500343 285.373971,15.8732339 286.477366,14.6570645 C287.620885,13.4405693 288.921553,12.5198903 290.382716,11.8943759 C291.847222,11.2340021 293.45216,10.9039781 295.197531,10.9039781 C296.625257,10.9039781 297.872428,11.0948903 298.942387,11.4773663 C300.049126,11.8595165 300.975309,12.3635117 301.72428,12.9890261 C302.510031,13.5796811 303.135288,14.2224623 303.596708,14.9176955 Z M296.053498,34.7777778 C297.267233,34.7777778 298.337191,34.5516804 299.263374,34.1001372 C300.192901,33.6482682 300.975309,32.9878944 301.617284,32.1193416 C302.296039,31.250463 302.8143,30.2252058 303.168724,29.0438957 C303.526492,27.8274005 303.703704,26.4721193 303.703704,24.9780521 C303.703704,22.9623971 303.402778,21.2249657 302.794239,19.7654321 C302.189043,18.2710391 301.316358,17.1415295 300.17284,16.3772291 C299.032665,15.5777435 297.658436,15.1783265 296.053498,15.1783265 C294.806327,15.1783265 293.699588,15.4389575 292.736626,15.9602195 C291.773663,16.4814815 290.971193,17.1936557 290.329218,18.0973937 C289.724023,19.0008059 289.259259,20.0433299 288.938272,21.2249657 C288.617284,22.4062757 288.45679,23.6573045 288.45679,24.9780521 C288.45679,26.7154835 288.72428,28.3313957 289.259259,29.8257888 C289.831019,31.319856 290.686986,32.5187586 291.82716,33.4224966 C292.970679,34.3259088 294.378344,34.7777778 296.053498,34.7777778 Z"
                      id="Shape"/>
                <path d="M327.263158,40 C324.421053,40 322,39.3745032 320,38.1238447 C318.036184,36.8728512 316.546053,35.1575092 315.526316,32.9778189 C314.509868,30.7619455 314,28.2606285 314,25.4731978 C314,23.3290203 314.299342,21.3811691 314.894737,19.6303142 C315.526316,17.8432763 316.404605,16.3068392 317.526316,15.0203327 C318.684211,13.7338262 320.072368,12.7508549 321.684211,12.0720887 C323.335526,11.3571396 325.194079,11 327.263158,11 C330,11 332.299342,11.5715573 334.157895,12.715342 C336.052632,13.8587916 337.493421,15.4846811 338.473684,17.5933457 C339.493421,19.6658272 340,22.1138748 340,24.9371534 C340,25.294293 340,25.669524 340,26.0628466 C340,26.4199861 339.983553,26.7060998 339.947368,26.9205176 L316.578947,26.9205176 L316.578947,22.792976 L334.578947,22.792976 C334.578947,21.7208872 334.404605,20.7379159 334.052632,19.844732 C333.703947,18.9153651 333.194079,18.1112985 332.526316,17.4325323 C331.894737,16.7534311 331.125,16.2351433 330.210526,15.8780037 C329.299342,15.4846811 328.263158,15.2883549 327.105263,15.2883549 C325.598684,15.2883549 324.246711,15.627738 323.052632,16.3068392 C321.894737,16.9856054 320.983553,17.9327287 320.315789,19.1478743 C319.651316,20.3626848 319.315789,21.7922482 319.315789,23.4362292 C319.315789,24.0077865 319.315789,24.5796788 319.315789,25.1515712 C319.315789,25.6876155 319.315789,26.1878119 319.315789,26.6524954 C319.315789,28.2247805 319.615132,29.6898567 320.210526,31.0480591 C320.809211,32.4059265 321.703947,33.5316197 322.894737,34.4251386 C324.088816,35.2828096 325.578947,35.7116451 327.368421,35.7116451 C328.947368,35.7116451 330.210526,35.4255314 331.157895,34.8539741 C332.141447,34.2820818 332.878289,33.6210721 333.368421,32.87061 C333.894737,32.0842999 334.246711,31.3874422 334.421053,30.780037 L339.631579,30.780037 C339.177632,32.5308919 338.421053,34.103512 337.368421,35.4972274 C336.315789,36.8909427 334.947368,37.9985444 333.263158,38.8207024 C331.615132,39.6066774 329.615132,40 327.263158,40 Z"
                      id="Path"/>
                <path d="M364.703704,1 L370,1 L370,38.2702332 L364.703704,38.2702332 L364.703704,1 Z M364.596708,14.9176955 L366.041152,14.9176955 L366.041152,35.1426612 L364.596708,35.1426612 C364.131944,35.7333162 363.506687,36.3415638 362.72428,36.9670782 C361.975309,37.5577332 361.045782,38.0441358 359.942387,38.4266118 C358.872428,38.808762 357.621914,39 356.197531,39 C353.877058,39 351.790638,38.4438786 349.938272,37.3319616 C348.119342,36.2197188 346.674897,34.6213992 345.604938,32.5363512 C344.534979,30.4164438 344,27.8971193 344,24.9780521 C344,22.7887517 344.300926,20.8252229 344.909465,19.0877915 C345.51466,17.3500343 346.370628,15.8732339 347.477366,14.6570645 C348.617541,13.4405693 349.91821,12.5198903 351.382716,11.8943759 C352.843879,11.2340021 354.448817,10.9039781 356.197531,10.9039781 C357.621914,10.9039781 358.872428,11.0948903 359.942387,11.4773663 C361.045782,11.8595165 361.975309,12.3635117 362.72428,12.9890261 C363.506687,13.5796811 364.131944,14.2224623 364.596708,14.9176955 Z M357.053498,34.7777778 C358.263889,34.7777778 359.333848,34.5516804 360.263374,34.1001372 C361.189558,33.6482682 361.975309,32.9878944 362.617284,32.1193416 C363.292695,31.250463 363.810957,30.2252058 364.168724,29.0438957 C364.523148,27.8274005 364.703704,26.4721193 364.703704,24.9780521 C364.703704,22.9623971 364.399434,21.2249657 363.794239,19.7654321 C363.1857,18.2710391 362.313014,17.1415295 361.17284,16.3772291 C360.029321,15.5777435 358.658436,15.1783265 357.053498,15.1783265 C355.802984,15.1783265 354.699588,15.4389575 353.736626,15.9602195 C352.773663,16.4814815 351.971193,17.1936557 351.329218,18.0973937 C350.720679,19.0008059 350.259259,20.0433299 349.938272,21.2249657 C349.617284,22.4062757 349.45679,23.6573045 349.45679,24.9780521 C349.45679,26.7154835 349.72428,28.3313957 350.259259,29.8257888 C350.827675,31.319856 351.683642,32.5187586 352.82716,33.4224966 C353.967335,34.3259088 355.375,34.7777778 357.053498,34.7777778 Z"
                      id="Shape"/>
                <path d="M392.242798,1 L392.242798,38.2702332 L387,38.2702332 L387,1 L392.242798,1 Z M392.349794,34.9862826 L390.958848,34.9862826 L390.958848,14.8134431 L392.349794,14.8134431 C392.851337,14.1530693 393.473251,13.5275549 394.222222,12.9368999 C394.971193,12.3459191 395.880658,11.8595165 396.950617,11.4773663 C398.057356,11.0948903 399.324588,10.9039781 400.748971,10.9039781 C403.069444,10.9039781 405.135802,11.4773663 406.954733,12.6241427 C408.810442,13.7360597 410.271605,15.3519719 411.341564,17.4718793 C412.448302,19.5569273 413,22.0589849 413,24.9780521 C413,27.1673525 412.679012,29.1305556 412.037037,30.8683128 C411.431842,32.6057442 410.575874,34.0825446 409.469136,35.2990398 C408.365741,36.4803498 407.061728,37.4013546 405.563786,38.0617284 C404.102623,38.6872428 402.497685,39 400.748971,39 C399.324588,39 398.057356,38.808762 396.950617,38.4266118 C395.880658,38.0441358 394.971193,37.5577332 394.222222,36.9670782 C393.473251,36.3415638 392.851337,35.68119 392.349794,34.9862826 Z M399.893004,15.1783265 C398.716049,15.1783265 397.646091,15.4040981 396.683128,15.8559671 C395.756944,16.2729767 394.954475,16.9157579 394.27572,17.7846365 C393.633745,18.6531893 393.135545,19.6957133 392.777778,20.9122085 C392.45679,22.0935185 392.296296,23.4487997 392.296296,24.9780521 C392.296296,26.9588477 392.600566,28.6962791 393.205761,30.1906722 C393.8143,31.6502058 394.686986,32.7793896 395.82716,33.5788752 C396.970679,34.378035 398.324846,34.7777778 399.893004,34.7777778 C401.143519,34.7777778 402.246914,34.5171468 403.209877,33.9958848 C404.17284,33.4397634 404.958591,32.7099966 405.563786,31.8065844 C406.205761,30.9028464 406.687243,29.8603224 407.00823,28.6790123 C407.329218,27.4973765 407.489712,26.2636145 407.489712,24.9780521 C407.489712,23.2402949 407.205504,21.6243827 406.633745,20.1303155 C406.098765,18.6359225 405.26286,17.4370199 404.119342,16.5336077 C403.015947,15.6298697 401.604938,15.1783265 399.893004,15.1783265 Z"
                      id="Shape"/>
                <path d="M425.742515,38.3860668 L415,12 L420.552894,12 L428.285429,32.3773585 L428.389222,32.3773585 L435.706587,12 L441,12 L430.568862,39.2743106 C429.702844,41.4338534 428.820609,43.1580914 427.922156,44.4470247 C427.020459,45.7356313 426.034431,46.6415094 424.964072,47.1640058 C423.926148,47.7211176 422.713074,48 421.331337,48 C420.776697,48 420.257735,47.9650581 419.774451,47.8955007 C419.287924,47.8605588 418.717066,47.7733672 418.061876,47.6342525 L418.061876,43.4542816 C418.509481,43.488897 418.892216,43.5238389 419.203593,43.5587808 C419.51497,43.5933962 419.858782,43.6110305 420.241517,43.6110305 C420.932385,43.6110305 421.623253,43.4542816 422.317365,43.1407837 C423.043912,42.8619013 423.699102,42.3394049 424.289421,41.5732946 C424.876497,40.8417997 425.35978,39.7791727 425.742515,38.3860668 Z"
                      id="Path"/>
                <polygon id="Path"
                         points="207.094241 92 207.094241 59.048951 195 59.048951 195 54 225 54 225 59.048951 212.905759 59.048951 212.905759 92"/>
                <path d="M229,54 L234.145825,54 L234.145825,92 L229,92 L229,54 Z M246.801667,74.620979 C246.801667,73.4162063 246.608042,72.3532692 246.224074,71.4321678 C245.872924,70.5107343 245.295331,69.8022203 244.491296,69.3062937 C243.720079,68.810035 242.686319,68.5622378 241.393299,68.5622378 C240.270932,68.5622378 239.256863,68.7216783 238.347811,69.0405594 C237.471577,69.3594406 236.718738,69.8198252 236.088636,70.4223776 C235.458535,71.0245979 234.968238,71.751049 234.618401,72.6013986 C234.30335,73.4162063 234.145825,74.3373077 234.145825,75.365035 L232.360539,75.365035 L232.360539,68.2965035 L234.250842,68.2965035 C234.950845,67.2687762 236.018406,66.3121329 237.455168,65.4265734 C238.889304,64.5406818 240.763198,64.0979021 243.073569,64.0979021 C244.753838,64.0979021 246.256892,64.4343881 247.589293,65.1076923 C248.918412,65.7454545 249.984989,66.7373077 250.792306,68.0839161 C251.596342,69.3946503 252,71.0953497 252,73.186014 L252,92 L246.801667,92 L246.801667,74.620979 Z"
                      id="Shape"/>
                <path d="M269.263158,93 C266.421053,93 264,92.3745032 262,91.1238447 C260.036184,89.8728512 258.546053,88.1575092 257.526316,85.9778189 C256.509868,83.7619455 256,81.2606285 256,78.4731978 C256,76.3290203 256.299342,74.3811691 256.894737,72.6303142 C257.526316,70.8432763 258.404605,69.3068392 259.526316,68.0203327 C260.684211,66.7338262 262.072368,65.7508549 263.684211,65.0720887 C265.335526,64.3571396 267.194079,64 269.263158,64 C272,64 274.299342,64.5715573 276.157895,65.715342 C278.052632,66.8587916 279.493421,68.4846811 280.473684,70.5933457 C281.493421,72.6658272 282,75.1138748 282,77.9371534 C282,78.294293 282,78.669524 282,79.0628466 C282,79.4199861 281.983553,79.7060998 281.947368,79.9205176 L258.578947,79.9205176 L258.578947,75.792976 L276.578947,75.792976 C276.578947,74.7208872 276.404605,73.7379159 276.052632,72.844732 C275.703947,71.9153651 275.194079,71.1112985 274.526316,70.4325323 C273.894737,69.7534311 273.125,69.2351433 272.210526,68.8780037 C271.299342,68.4846811 270.263158,68.2883549 269.105263,68.2883549 C267.598684,68.2883549 266.246711,68.627738 265.052632,69.3068392 C263.894737,69.9856054 262.983553,70.9327287 262.315789,72.1478743 C261.651316,73.3626848 261.315789,74.7922482 261.315789,76.4362292 C261.315789,77.0077865 261.315789,77.5796788 261.315789,78.1515712 C261.315789,78.6876155 261.315789,79.1878119 261.315789,79.6524954 C261.315789,81.2247805 261.615132,82.6898567 262.210526,84.0480591 C262.809211,85.4059265 263.703947,86.5316197 264.894737,87.4251386 C266.088816,88.2828096 267.578947,88.7116451 269.368421,88.7116451 C270.947368,88.7116451 272.210526,88.4255314 273.157895,87.8539741 C274.141447,87.2820818 274.878289,86.6210721 275.368421,85.87061 C275.894737,85.0842999 276.246711,84.3874422 276.421053,83.780037 L281.631579,83.780037 C281.177632,85.5308919 280.421053,87.103512 279.368421,88.4972274 C278.315789,89.8909427 276.947368,90.9985444 275.263158,91.8207024 C273.615132,92.6066774 271.615132,93 269.263158,93 Z"
                      id="Path"/>
                <path d="M300,92 L300,54 L315.684211,54 C319.858553,54 323.036184,54.9566434 325.210526,56.8699301 C327.384868,58.7476748 328.473684,61.4405594 328.473684,64.9482517 C328.473684,66.5426573 328.174342,67.9952273 327.578947,69.3062937 C326.983553,70.5818182 326.157895,71.6447552 325.105263,72.4951049 C324.052632,73.3454545 322.842105,73.9300699 321.473684,74.248951 L321.473684,74.3552448 C322.911184,74.6385839 324.052632,75.2408042 324.894737,76.1622378 C325.773026,77.0477972 326.421053,78.1286713 326.842105,79.4041958 C327.263158,80.6797203 327.542763,82.0083916 327.684211,83.3902098 C327.858553,84.772028 327.983553,86.0651573 328.052632,87.2699301 C328.121711,88.4743706 328.210526,89.4841608 328.315789,90.2993007 C328.457237,91.0785664 328.684211,91.5216783 329,91.627972 L329,92 L322.789474,92 C322.509868,91.7163287 322.332237,91.1672552 322.263158,90.3524476 C322.226974,89.5373077 322.210526,88.5630594 322.210526,87.4293706 C322.210526,86.2953497 322.121711,85.1440559 321.947368,83.9748252 C321.805921,82.7700524 321.526316,81.6539685 321.105263,80.6265734 C320.684211,79.5988462 320.016447,78.7664336 319.105263,78.1286713 C318.226974,77.4553671 317.016447,77.1188811 315.473684,77.1188811 L305.789474,77.1188811 L305.789474,92 L300,92 Z M305.789474,59.048951 L305.789474,72.0699301 L314.421053,72.0699301 C316.210526,72.0699301 317.700658,71.8218007 318.894737,71.3258741 C320.121711,70.7944056 321.052632,70.0324126 321.684211,69.0405594 C322.315789,68.0483741 322.631579,66.8259965 322.631579,65.3734266 C322.631579,63.3183042 322,61.7594406 320.736842,60.6965035 C319.509868,59.5980245 317.4375,59.048951 314.526316,59.048951 L305.789474,59.048951 Z"
                      id="Shape"/>
                <path d="M347.263158,93 C344.421053,93 342,92.3745032 340,91.1238447 C338.032895,89.8728512 336.542763,88.1575092 335.526316,85.9778189 C334.506579,83.7619455 334,81.2606285 334,78.4731978 C334,76.3290203 334.296053,74.3811691 334.894737,72.6303142 C335.526316,70.8432763 336.401316,69.3068392 337.526316,68.0203327 C338.684211,66.7338262 340.069079,65.7508549 341.684211,65.0720887 C343.332237,64.3571396 345.190789,64 347.263158,64 C350,64 352.296053,64.5715573 354.157895,65.715342 C356.052632,66.8587916 357.490132,68.4846811 358.473684,70.5933457 C359.490132,72.6658272 360,75.1138748 360,77.9371534 C360,78.294293 360,78.669524 360,79.0628466 C360,79.4199861 359.980263,79.7060998 359.947368,79.9205176 L336.578947,79.9205176 L336.578947,75.792976 L354.578947,75.792976 C354.578947,74.7208872 354.401316,73.7379159 354.052632,72.844732 C353.700658,71.9153651 353.190789,71.1112985 352.526316,70.4325323 C351.894737,69.7534311 351.121711,69.2351433 350.210526,68.8780037 C349.296053,68.4846811 348.263158,68.2883549 347.105263,68.2883549 C345.595395,68.2883549 344.243421,68.627738 343.052632,69.3068392 C341.894737,69.9856054 340.980263,70.9327287 340.315789,72.1478743 C339.648026,73.3626848 339.315789,74.7922482 339.315789,76.4362292 C339.315789,77.0077865 339.315789,77.5796788 339.315789,78.1515712 C339.315789,78.6876155 339.315789,79.1878119 339.315789,79.6524954 C339.315789,81.2247805 339.611842,82.6898567 340.210526,84.0480591 C340.805921,85.4059265 341.700658,86.5316197 342.894737,87.4251386 C344.085526,88.2828096 345.578947,88.7116451 347.368421,88.7116451 C348.947368,88.7116451 350.210526,88.4255314 351.157895,87.8539741 C352.138158,87.2820818 352.875,86.6210721 353.368421,85.87061 C353.894737,85.0842999 354.243421,84.3874422 354.421053,83.780037 L359.631579,83.780037 C359.174342,85.5308919 358.421053,87.103512 357.368421,88.4972274 C356.315789,89.8909427 354.947368,90.9985444 353.263158,91.8207024 C351.611842,92.6066774 349.611842,93 347.263158,93 Z"
                      id="Path"/>
                <path d="M375.483146,75.2727273 C376.740449,75.5844156 377.980899,75.9133117 379.204494,76.2597403 C380.461798,76.6058442 381.594382,77.0909091 382.602247,77.7142857 C383.64382,78.3376623 384.473034,79.1340909 385.083146,80.1038961 C385.693258,81.0733766 386,82.2857143 386,83.7402597 C386,85.4717532 385.551685,86.961039 384.651685,88.2077922 C383.788764,89.4198052 382.511236,90.3548701 380.822472,91.012987 C379.133708,91.6707792 377.08427,92 374.674157,92 C371.906742,92 369.58764,91.5844156 367.716854,90.7532468 C365.883146,89.9220779 364.480899,88.7792208 363.510112,87.3246753 C362.576404,85.8701299 362.070787,84.2422078 362,82.4415584 L367.339326,82.4415584 C367.447191,83.4805195 367.733708,84.4155844 368.202247,85.2467532 C368.704494,86.0779221 369.479775,86.7357143 370.521348,87.2207792 C371.562921,87.6707792 372.931461,87.8961039 374.620225,87.8961039 C376.167416,87.8961039 377.353933,87.7055195 378.179775,87.3246753 C379.042697,86.9435065 379.635955,86.4587662 379.959551,85.8701299 C380.320225,85.2467532 380.498876,84.6233766 380.498876,84 C380.498876,82.8915584 380.138202,82.0779221 379.420225,81.5584416 C378.702247,81.0042208 377.802247,80.6058442 376.723596,80.3636364 C375.644944,80.0863636 374.495506,79.8266234 373.27191,79.5844156 C372.085393,79.3071429 370.882022,79.012987 369.658427,78.7012987 C368.434831,78.3548701 367.322472,77.8873377 366.314607,77.2987013 C365.306742,76.7097403 364.497753,75.9652597 363.88764,75.0649351 C363.277528,74.1642857 362.970787,73.0214286 362.970787,71.6363636 C362.970787,70.1123377 363.385393,68.7792208 364.211236,67.6363636 C365.037079,66.4935065 366.223596,65.6103896 367.770787,64.987013 C369.351685,64.3288961 371.259551,64 373.48764,64 C375.968539,64 378.034831,64.3808442 379.689888,65.1428571 C381.378652,65.9045455 382.65618,66.9435065 383.519101,68.2597403 C384.382022,69.5409091 384.867416,70.9435065 384.975281,72.4675325 L379.635955,72.4675325 C379.52809,71.7746753 379.275281,71.0993506 378.880899,70.4415584 C378.520225,69.7834416 377.926966,69.2292208 377.101124,68.7792208 C376.275281,68.3288961 375.088764,68.1038961 373.541573,68.1038961 C372.355056,68.1038961 371.38427,68.2422078 370.629213,68.5194805 C369.911236,68.7964286 369.37191,69.1772727 369.011236,69.6623377 C368.650562,70.1470779 368.47191,70.7357143 368.47191,71.4285714 C368.47191,72.3288961 368.778652,73.0042208 369.388764,73.4545455 C369.998876,73.9045455 370.844944,74.250974 371.923596,74.4935065 C373.002247,74.7012987 374.188764,74.961039 375.483146,75.2727273 Z"
                      id="Path"/>
                <path d="M402.263158,93 C399.421053,93 397,92.3745032 395,91.1238447 C393.036184,89.8728512 391.546053,88.1575092 390.526316,85.9778189 C389.509868,83.7619455 389,81.2606285 389,78.4731978 C389,76.3290203 389.299342,74.3811691 389.894737,72.6303142 C390.526316,70.8432763 391.404605,69.3068392 392.526316,68.0203327 C393.684211,66.7338262 395.072368,65.7508549 396.684211,65.0720887 C398.335526,64.3571396 400.194079,64 402.263158,64 C405,64 407.299342,64.5715573 409.157895,65.715342 C411.052632,66.8587916 412.493421,68.4846811 413.473684,70.5933457 C414.493421,72.6658272 415,75.1138748 415,77.9371534 C415,78.294293 415,78.669524 415,79.0628466 C415,79.4199861 414.983553,79.7060998 414.947368,79.9205176 L391.578947,79.9205176 L391.578947,75.792976 L409.578947,75.792976 C409.578947,74.7208872 409.404605,73.7379159 409.052632,72.844732 C408.703947,71.9153651 408.194079,71.1112985 407.526316,70.4325323 C406.894737,69.7534311 406.125,69.2351433 405.210526,68.8780037 C404.299342,68.4846811 403.263158,68.2883549 402.105263,68.2883549 C400.598684,68.2883549 399.246711,68.627738 398.052632,69.3068392 C396.894737,69.9856054 395.983553,70.9327287 395.315789,72.1478743 C394.651316,73.3626848 394.315789,74.7922482 394.315789,76.4362292 C394.315789,77.0077865 394.315789,77.5796788 394.315789,78.1515712 C394.315789,78.6876155 394.315789,79.1878119 394.315789,79.6524954 C394.315789,81.2247805 394.615132,82.6898567 395.210526,84.0480591 C395.809211,85.4059265 396.703947,86.5316197 397.894737,87.4251386 C399.088816,88.2828096 400.578947,88.7116451 402.368421,88.7116451 C403.947368,88.7116451 405.210526,88.4255314 406.157895,87.8539741 C407.141447,87.2820818 407.878289,86.6210721 408.368421,85.87061 C408.894737,85.0842999 409.246711,84.3874422 409.421053,83.780037 L414.631579,83.780037 C414.177632,85.5308919 413.421053,87.103512 412.368421,88.4972274 C411.315789,89.8909427 409.947368,90.9985444 408.263158,91.8207024 C406.615132,92.6066774 404.615132,93 402.263158,93 Z"
                      id="Path"/>
                <path d="M427.808017,92 C425.134626,92 422.98866,91.3084259 421.373418,89.9259259 C419.791139,88.5084259 419,86.6764352 419,84.4296296 C419,82.9431019 419.263713,81.6986574 419.791139,80.6962963 C420.35153,79.6936111 421.126187,78.8639815 422.111814,78.2074074 C423.094146,77.5505093 424.274262,77.0148148 425.64557,76.6 C427.049842,76.1851852 428.579378,75.8222222 430.234177,75.5111111 C431.28903,75.3037037 432.238397,75.1134722 433.082278,74.9407407 C433.92616,74.7676852 434.644778,74.5431019 435.244726,74.2666667 C435.841377,73.9899074 436.2798,73.6444444 436.563291,73.2296296 C436.879747,72.8148148 437.037975,72.2787963 437.037975,71.6222222 C437.037975,70.654213 436.668776,69.8245833 435.93038,69.1333333 C435.224947,68.4417593 433.8899,68.0962963 431.921941,68.0962963 C429.565005,68.0962963 427.946466,68.4764352 427.06962,69.237037 C426.189478,69.9973148 425.678534,71.2764352 425.540084,73.0740741 L420.265823,73.0740741 C420.371308,71.3801389 420.826213,69.8592593 421.637131,68.5111111 C422.481013,67.128287 423.746835,66.0393981 425.434599,65.2444444 C427.155327,64.4148148 429.390295,64 432.132911,64 C433.995385,64 435.666667,64.2936111 437.14346,64.8814815 C438.653217,65.4343519 439.849815,66.3676852 440.729958,67.6814815 C441.643064,68.9949537 442.101266,70.8097685 442.101266,73.1259259 L442.101266,85.2592593 C442.101266,86.2269444 442.186973,86.9528704 442.364979,87.437037 C442.539689,87.9208796 442.872627,88.162963 443.367089,88.162963 C443.436313,88.162963 443.525316,88.162963 443.630802,88.162963 C443.736287,88.162963 443.858254,88.145463 444,88.1111111 L444,91.2222222 C443.541799,91.3259259 443.083597,91.3949537 442.628692,91.4296296 C442.206751,91.4986574 441.78481,91.5333333 441.362869,91.5333333 C440.097046,91.5333333 439.111419,91.2565741 438.409283,90.7037037 C437.70385,90.1158333 437.281909,89.0616204 437.14346,87.5407407 L437.037975,87.5407407 C436.121572,88.8888889 434.892009,89.9777778 433.345992,90.8074074 C431.832938,91.6023611 429.986946,92 427.808017,92 Z M428.968354,87.9037037 C430.514372,87.9037037 431.88568,87.6444444 433.082278,87.1259259 C434.311841,86.6074074 435.27769,85.8296296 435.983122,84.7925926 C436.685258,83.7555556 437.037975,82.4764352 437.037975,80.9555556 L437.037975,77.1703704 C436.754483,77.4121296 436.31606,77.654213 435.719409,77.8962963 C435.155723,78.1037037 434.470069,78.3111111 433.662447,78.5185185 C432.88779,78.69125 432.043908,78.8814815 431.130802,79.0888889 C429.548523,79.4 428.24644,79.7801389 427.227848,80.2296296 C426.24222,80.6444444 425.520306,81.162963 425.065401,81.7851852 C424.64346,82.3727315 424.432489,83.1333333 424.432489,84.0666667 C424.432489,85.3111111 424.781909,86.2616204 425.487342,86.9185185 C426.225738,87.5750926 427.386076,87.9037037 428.968354,87.9037037 Z"
                      id="Shape"/>
                <path d="M448,65.6206897 L453.176056,65.6206897 L453.176056,92 L448,92 L448,65.6206897 Z M463,70.0172414 C462.646787,69.9480603 462.329886,69.9137931 462.049296,69.9137931 C461.801717,69.8792026 461.537632,69.862069 461.257042,69.862069 C459.672535,69.862069 458.262984,70.2241379 457.03169,70.9482759 C455.833407,71.6378233 454.882702,72.6205819 454.179577,73.8965517 C453.509463,75.1721983 453.176056,76.6550647 453.176056,78.3448276 L450.640845,78.3448276 L449.478873,70.637931 L453.28169,70.637931 C453.984815,68.9827586 454.902509,67.637931 456.028169,66.6034483 C457.190141,65.534375 458.685519,65 460.517606,65 C461.009463,65 461.451805,65.0171336 461.838028,65.0517241 C462.224252,65.0517241 462.613776,65.0859914 463,65.1551724 L463,70.0172414 Z"
                      id="Shape"/>
                <path d="M485.6875,74.3703704 C485.619141,73.4713889 485.375,72.5555556 484.958333,71.6222222 C484.541667,70.654213 483.848307,69.8417593 482.875,69.1851852 C481.9375,68.528287 480.651693,68.2 479.020833,68.2 C477.181641,68.2 475.6875,68.6838426 474.541667,69.6518519 C473.395833,70.5851852 472.5625,71.7949537 472.041667,73.2814815 C471.556641,74.7676852 471.3125,76.3407407 471.3125,78 C471.3125,79.6592593 471.556641,81.2319907 472.041667,82.7185185 C472.5625,84.2047222 473.395833,85.4148148 474.541667,86.3481481 C475.6875,87.2814815 477.181641,87.7481481 479.020833,87.7481481 C480.6875,87.7481481 481.989583,87.437037 482.927083,86.8148148 C483.864583,86.1579167 484.541667,85.345463 484.958333,84.3777778 C485.375,83.3750926 485.619141,82.3899074 485.6875,81.4222222 L491,81.4222222 C490.895833,83.4616204 490.322917,85.2764352 489.28125,86.8666667 C488.239583,88.4222222 486.833333,89.6666667 485.0625,90.6 C483.327474,91.5333333 481.328776,92 479.072917,92 C476.432943,92 474.125,91.4121296 472.145833,90.237037 C470.202474,89.0269444 468.692057,87.3851852 467.614583,85.3111111 C466.537109,83.2023611 466,80.7653241 466,78 C466,75.9259259 466.296224,74.0417593 466.885417,72.3481481 C467.510417,70.619537 468.395833,69.1333333 469.541667,67.8888889 C470.6875,66.6444444 472.057943,65.6936111 473.65625,65.037037 C475.254557,64.345463 477.041667,64 479.020833,64 C481.276693,64 483.275391,64.4491667 485.010417,65.3481481 C486.745443,66.2468056 488.119141,67.4740741 489.125,69.0296296 C490.166667,70.5851852 490.791667,72.3653241 491,74.3703704 L485.6875,74.3703704 Z"
                      id="Path"/>
                <path d="M496,54 L501.146119,54 L501.146119,92 L496,92 L496,54 Z M513.80137,74.620979 C513.80137,73.4162063 513.611016,72.3532692 513.223744,71.4321678 C512.875856,70.5107343 512.298231,69.8022203 511.490868,69.3062937 C510.722888,68.810035 509.68907,68.5622378 508.392694,68.5622378 C507.273545,68.5622378 506.259418,68.7216783 505.347032,69.0405594 C504.47403,69.3594406 503.719178,69.8198252 503.089041,70.4223776 C502.458904,71.0245979 501.969892,71.751049 501.618721,72.6013986 C501.303653,73.4162063 501.146119,74.3373077 501.146119,75.365035 L499.360731,75.365035 L499.360731,68.2965035 L501.251142,68.2965035 C501.953482,67.2687762 503.02012,66.3121329 504.454338,65.4265734 C505.891838,64.5406818 507.762557,64.0979021 510.073059,64.0979021 C511.753425,64.0979021 513.259846,64.4343881 514.589041,65.1076923 C515.921518,65.7454545 516.988156,66.7373077 517.792237,68.0839161 C518.5996,69.3946503 519,71.0953497 519,73.186014 L519,92 L513.80137,92 L513.80137,74.620979 Z"
                      id="Shape"/>
                <path d="M223.900156,119.489906 C223.723459,118.545087 223.422777,117.582554 222.99844,116.602961 C222.609575,115.62304 222.026112,114.713324 221.24805,113.873486 C220.47032,112.998545 219.46252,112.298789 218.224649,111.77389 C216.98711,111.248991 215.448888,110.986541 213.609984,110.986541 C211.523771,110.986541 209.73791,111.388745 208.25273,112.193809 C206.803023,112.998545 205.618526,114.083445 204.698908,115.448183 C203.779622,116.812921 203.107644,118.369902 202.683307,120.119785 C202.25897,121.834236 202.046802,123.618893 202.046802,125.473755 C202.046802,127.328289 202.25897,129.130333 202.683307,130.880215 C203.107644,132.62977 203.779622,134.187079 204.698908,135.551817 C205.618526,136.916555 206.803023,138.001127 208.25273,138.806191 C209.73791,139.610927 211.523771,140.013459 213.609984,140.013459 C216.049922,140.013459 217.99491,139.558437 219.444618,138.648721 C220.929797,137.703903 222.008541,136.514023 222.680187,135.079408 C223.387637,133.644465 223.794072,132.15736 223.900156,130.617766 L230,130.617766 C229.717219,133.382015 228.886115,135.866756 227.50702,138.071332 C226.163397,140.240806 224.324493,141.93787 221.99064,143.162853 C219.656786,144.387508 216.881026,145 213.663027,145 C210.091634,145 206.979719,144.160162 204.327613,142.480485 C201.675507,140.800808 199.624766,138.491252 198.174727,135.551817 C196.72502,132.612382 196,129.270416 196,125.526245 C196,122.656687 196.406767,120.049579 197.219969,117.705249 C198.068643,115.325488 199.271041,113.260994 200.826833,111.51144 C202.382956,109.761558 204.239431,108.414536 206.396256,107.469717 C208.588885,106.489796 211.028822,106 213.716069,106 C216.934068,106 219.692258,106.594776 221.99064,107.784657 C224.289353,108.974209 226.127925,110.601396 227.50702,112.666218 C228.886115,114.695609 229.717219,116.97039 230,119.489906 L223.900156,119.489906 Z"
                      id="Path"/>
                <path d="M247.500662,146 C244.675065,146 242.259742,145.39226 240.248076,144.177449 C238.23641,142.926456 236.681339,141.211114 235.588157,139.031423 C234.529386,136.851398 234,134.349746 234,131.526802 C234,129.382625 234.299765,127.434774 234.899956,125.683919 C235.499816,123.896881 236.382236,122.360444 237.548208,121.073937 C238.745944,119.751583 240.175286,118.750855 241.836234,118.072089 C243.530268,117.35714 245.416205,117 247.500662,117 C250.32295,117 252.721729,117.625162 254.700309,118.876155 C256.711975,120.090966 258.263737,121.788551 259.358904,123.968577 C260.450762,126.112754 261,128.614071 261,131.473198 C261,133.652888 260.682369,135.636252 260.047106,137.42329 C259.444929,139.174145 258.544973,140.693161 257.347238,141.979667 C256.182589,143.266174 254.769791,144.266567 253.112151,144.981516 C251.451203,145.660282 249.58181,146 247.500662,146 Z M247.500662,141.658041 C248.910151,141.658041 250.111196,141.407775 251.100485,140.907579 C252.122862,140.407047 252.953336,139.692433 253.588599,138.763401 C254.256948,137.798521 254.753247,136.708341 255.070879,135.49353 C255.421597,134.278385 255.600265,132.95603 255.600265,131.526802 C255.600265,129.597043 255.299177,127.881701 254.700309,126.380776 C254.134528,124.844004 253.251115,123.628859 252.05338,122.735675 C250.852336,121.842156 249.33366,121.395564 247.500662,121.395564 C246.124259,121.395564 244.923215,121.645494 243.900838,122.146026 C242.875153,122.646222 242.028136,123.360836 241.359786,124.290203 C240.688128,125.219235 240.195137,126.30908 239.877506,127.560074 C239.559875,128.774884 239.401059,130.097239 239.401059,131.526802 C239.401059,133.420714 239.682295,135.136056 240.248076,136.672828 C240.810549,138.209265 241.693961,139.424411 242.895005,140.31793 C244.129136,141.211114 245.664355,141.658041 247.500662,141.658041 Z"
                      id="Shape"/>
                <path d="M289,118 L289,144.278626 L283.853881,144.278626 L283.853881,118 L289,118 Z M271.19863,134.79771 C271.19863,135.965434 271.372574,136.995969 271.723744,137.889313 C272.107734,138.782335 272.68536,139.486641 273.456621,140.001908 C274.260702,140.482717 275.31093,140.723282 276.607306,140.723282 C277.726455,140.723282 278.724172,140.568702 279.600457,140.259542 C280.509561,139.950382 281.280822,139.503709 281.910959,138.919847 C282.541096,138.301527 283.013699,137.597221 283.328767,136.807252 C283.679937,136.016961 283.853881,135.123938 283.853881,134.127863 L283.958904,134.127863 L283.958904,140.980916 L283.748858,140.980916 C283.0498,141.976992 281.97988,142.904473 280.545662,143.763359 C279.111444,144.587786 277.237443,145 274.926941,145 C273.282677,145 271.776256,144.69084 270.410959,144.072519 C269.081764,143.454198 268.011844,142.492259 267.207763,141.187023 C266.403682,139.847328 266,138.181083 266,136.188931 L266,118 L271.19863,118 L271.19863,134.79771 Z"
                      id="Shape"/>
                <path d="M295,144 L295,117.771429 L300.146119,117.771429 L300.146119,144 L295,144 Z M312.80137,127.182857 C312.80137,126.017036 312.611016,124.988464 312.223744,124.097143 C311.875856,123.2055 311.298231,122.519893 310.490868,122.04 C309.722888,121.559786 308.68907,121.32 307.392694,121.32 C306.273545,121.32 305.259418,121.474286 304.347032,121.782857 C303.47403,122.091429 302.719178,122.536929 302.089041,123.12 C301.458904,123.70275 300.969892,124.405714 300.618721,125.228571 C300.303653,126.017036 300.146119,126.908357 300.146119,127.902857 L298.360731,127.902857 L298.360731,121.062857 L300.251142,121.062857 C300.953482,120.068357 302.02012,119.142643 303.454338,118.285714 C304.891838,117.428464 306.762557,117 309.073059,117 C310.753425,117 312.259846,117.325607 313.589041,117.977143 C314.921518,118.594286 315.988156,119.554071 316.792237,120.857143 C317.5996,122.1255 318,123.771214 318,125.794286 L318,144 L312.80137,144 L312.80137,127.182857 Z"
                      id="Shape"/>
                <path d="M342.6875,127.37037 C342.619141,126.471389 342.375,125.555556 341.958333,124.622222 C341.541667,123.654213 340.848307,122.841759 339.875,122.185185 C338.9375,121.528287 337.654948,121.2 336.020833,121.2 C334.181641,121.2 332.6875,121.683843 331.541667,122.651852 C330.395833,123.585185 329.5625,124.794954 329.041667,126.281481 C328.556641,127.767685 328.3125,129.340741 328.3125,131 C328.3125,132.659259 328.556641,134.231991 329.041667,135.718519 C329.5625,137.204722 330.395833,138.414815 331.541667,139.348148 C332.6875,140.281481 334.181641,140.748148 336.020833,140.748148 C337.6875,140.748148 338.989583,140.437037 339.927083,139.814815 C340.864583,139.157917 341.541667,138.345463 341.958333,137.377778 C342.375,136.375093 342.619141,135.389907 342.6875,134.422222 L348,134.422222 C347.895833,136.46162 347.322917,138.276435 346.28125,139.866667 C345.239583,141.422222 343.833333,142.666667 342.0625,143.6 C340.327474,144.533333 338.332031,145 336.072917,145 C333.436198,145 331.125,144.41213 329.145833,143.237037 C327.202474,142.026944 325.692057,140.385185 324.614583,138.311111 C323.540365,136.202361 323,133.765324 323,131 C323,128.925926 323.296224,127.041759 323.885417,125.348148 C324.510417,123.619537 325.395833,122.133333 326.541667,120.888889 C327.6875,119.644444 329.061198,118.693611 330.65625,118.037037 C332.254557,117.345463 334.041667,117 336.020833,117 C338.279948,117 340.275391,117.449167 342.010417,118.348148 C343.748698,119.246806 345.119141,120.474074 346.125,122.02963 C347.166667,123.585185 347.791667,125.365324 348,127.37037 L342.6875,127.37037 Z"
                      id="Path"/>
                <path d="M352.465517,144 L352.465517,117.385049 L357.534483,117.385049 L357.534483,144 L352.465517,144 Z M352,109.974612 C352,109.174207 352.258621,108.4785 352.775862,107.887165 C353.293103,107.295504 354.036638,107 355,107 C355.966595,107 356.706897,107.295504 357.224138,107.887165 C357.741379,108.4785 358,109.174207 358,109.974612 C358,110.774691 357.741379,111.470398 357.224138,112.062059 C356.706897,112.653394 355.966595,112.949224 355,112.949224 C354.036638,112.949224 353.293103,112.653394 352.775862,112.062059 C352.258621,111.470398 352,110.774691 352,109.974612 Z"
                      id="Shape"/>
                <polygon id="Path" points="365 107 370 107 370 145 365 145"/>
                <path d="M400.5,146 C397.677574,146 395.258824,145.39226 393.247059,144.177449 C391.235294,142.926456 389.683456,141.211114 388.588235,139.031423 C387.529412,136.851398 387,134.349746 387,131.526802 C387,129.382625 387.301103,127.434774 387.9,125.683919 C388.502206,123.896881 389.382353,122.360444 390.547059,121.073937 C391.748162,119.751583 393.177574,118.750855 394.835294,118.072089 C396.529412,117.35714 398.41875,117 400.5,117 C403.325735,117 405.724632,117.625162 407.7,118.876155 C409.711765,120.090966 411.266912,121.788551 412.358824,123.968577 C413.454044,126.112754 414,128.614071 414,131.473198 C414,133.652888 413.682353,135.636252 413.047059,137.42329 C412.448162,139.174145 411.548162,140.693161 410.347059,141.979667 C409.182353,143.266174 407.772794,144.266567 406.111765,144.981516 C404.454044,145.660282 402.584559,146 400.5,146 Z M400.5,141.658041 C401.912868,141.658041 403.113971,141.407775 404.1,140.907579 C405.125735,140.407047 405.952941,139.692433 406.588235,138.763401 C407.259926,137.798521 407.752941,136.708341 408.070588,135.49353 C408.424632,134.278385 408.6,132.95603 408.6,131.526802 C408.6,129.597043 408.302206,127.881701 407.7,126.380776 C407.1375,124.844004 406.254044,123.628859 405.052941,122.735675 C403.855147,121.842156 402.336397,121.395564 400.5,121.395564 C399.123529,121.395564 397.925735,121.645494 396.9,122.146026 C395.877574,122.646222 395.030515,123.360836 394.358824,124.290203 C393.690441,125.219235 393.194118,126.30908 392.876471,127.560074 C392.558824,128.774884 392.4,130.097239 392.4,131.526802 C392.4,133.420714 392.684559,135.136056 393.247059,136.672828 C393.812868,138.209265 394.696324,139.424411 395.894118,140.31793 C397.131618,141.211114 398.666912,141.658041 400.5,141.658041 Z"
                      id="Shape"/>
                <path d="M416,118.157895 L430,118.157895 L430,122.421053 L416,122.421053 L416,118.157895 Z M424.909091,145 L419.712121,145 L419.712121,114.894737 C419.712121,112.824342 419.993845,111.227961 420.560606,110.105263 C421.124053,108.947368 421.919508,108.140132 422.94697,107.684211 C424.007576,107.227961 425.260417,107 426.712121,107 C427.205966,107 427.683239,107.034868 428.143939,107.105263 C428.637784,107.140132 429.257576,107.210526 430,107.315789 L430,111.473684 C429.469697,111.403289 429.062027,111.368421 428.780303,111.368421 C428.495265,111.333224 428.160511,111.315789 427.772727,111.315789 C427.063447,111.315789 426.5,111.403289 426.075758,111.578947 C425.651515,111.754276 425.349905,112.105263 425.174242,112.631579 C424.995265,113.122697 424.909091,113.842105 424.909091,114.789474 L424.909091,145 Z"
                      id="Shape"/>
                <polygon id="Path"
                         points="448 145 448 107 454.619965 107 472.063047 136.230769 472.168126 136.230769 472.168126 107 478 107 478 145 471.380035 145 453.884413 115.769231 453.779335 115.769231 453.779335 145"/>
                <path d="M496.5,146 C493.677574,146 491.258824,145.39226 489.247059,144.177449 C487.235294,142.926456 485.683456,141.211114 484.588235,139.031423 C483.529412,136.851398 483,134.349746 483,131.526802 C483,129.382625 483.301103,127.434774 483.9,125.683919 C484.498897,123.896881 485.382353,122.360444 486.547059,121.073937 C487.748162,119.751583 489.177574,118.750855 490.835294,118.072089 C492.529412,117.35714 494.41875,117 496.5,117 C499.322426,117 501.724632,117.625162 503.7,118.876155 C505.711765,120.090966 507.263603,121.788551 508.358824,123.968577 C509.454044,126.112754 510,128.614071 510,131.473198 C510,133.652888 509.682353,135.636252 509.047059,137.42329 C508.448162,139.174145 507.548162,140.693161 506.347059,141.979667 C505.182353,143.266174 503.769485,144.266567 502.111765,144.981516 C500.454044,145.660282 498.58125,146 496.5,146 Z M496.5,141.658041 C497.912868,141.658041 499.110662,141.407775 500.1,140.907579 C501.122426,140.407047 501.952941,139.692433 502.588235,138.763401 C503.259926,137.798521 503.752941,136.708341 504.070588,135.49353 C504.424632,134.278385 504.6,132.95603 504.6,131.526802 C504.6,129.597043 504.298897,127.881701 503.7,126.380776 C503.134191,124.844004 502.254044,123.628859 501.052941,122.735675 C499.851838,121.842156 498.336397,121.395564 496.5,121.395564 C495.123529,121.395564 493.922426,121.645494 492.9,122.146026 C491.877574,122.646222 491.030515,123.360836 490.358824,124.290203 C489.687132,125.219235 489.194118,126.30908 488.876471,127.560074 C488.558824,128.774884 488.4,130.097239 488.4,131.526802 C488.4,133.420714 488.68125,135.136056 489.247059,136.672828 C489.812868,138.209265 490.693015,139.424411 491.894118,140.31793 C493.128309,141.211114 494.663603,141.658041 496.5,141.658041 Z"
                      id="Shape"/>
                <path d="M515,117.62069 L520.176056,117.62069 L520.176056,144 L515,144 L515,117.62069 Z M530,122.017241 C529.650088,121.94806 529.333187,121.913793 529.049296,121.913793 C528.805018,121.879203 528.540933,121.862069 528.257042,121.862069 C526.672535,121.862069 525.266285,122.224138 524.03169,122.948276 C522.836708,123.637823 521.886004,124.620582 521.179577,125.896552 C520.512764,127.172198 520.176056,128.655065 520.176056,130.344828 L517.640845,130.344828 L516.478873,122.637931 L520.28169,122.637931 C520.988116,120.982759 521.902509,119.637931 523.028169,118.603448 C524.190141,117.534375 525.68882,117 527.517606,117 C528.012764,117 528.451805,117.017134 528.838028,117.051724 C529.227553,117.051724 529.613776,117.085991 530,117.155172 L530,122.017241 Z"
                      id="Shape"/>
                <polygon id="Path"
                         points="532 117 537.578947 117 543.263158 137.911765 543.368421 137.911765 548.947368 117 554.157895 117 559.736842 137.911765 559.894737 137.911765 565.578947 117 571 117 562.631579 144 557.315789 144 551.526316 123.194118 551.421053 123.194118 545.631579 144 540.315789 144"/>
                <path d="M581.808017,145 C579.137922,145 576.991957,144.308426 575.373418,142.925926 C573.791139,141.508426 573,139.676435 573,137.42963 C573,135.943102 573.263713,134.698657 573.791139,133.696296 C574.354826,132.693611 575.129483,131.863981 576.111814,131.207407 C577.097442,130.550509 578.274262,130.014815 579.64557,129.6 C581.053138,129.185185 582.582674,128.822222 584.234177,128.511111 C585.28903,128.303704 586.238397,128.113472 587.082278,127.940741 C587.92616,127.767685 588.648075,127.543102 589.244726,127.266667 C589.844673,126.989907 590.283096,126.644444 590.563291,126.22963 C590.879747,125.814815 591.037975,125.278796 591.037975,124.622222 C591.037975,123.654213 590.668776,122.824583 589.93038,122.133333 C589.228244,121.441759 587.893196,121.096296 585.921941,121.096296 C583.568302,121.096296 581.949763,121.476435 581.06962,122.237037 C580.192774,122.997315 579.68183,124.276435 579.540084,126.074074 L574.265823,126.074074 C574.371308,124.380139 574.829509,122.859259 575.637131,121.511111 C576.481013,120.128287 577.746835,119.039398 579.434599,118.244444 C581.158623,117.414815 583.390295,117 586.132911,117 C587.998681,117 589.666667,117.293611 591.14346,117.881481 C592.656514,118.434352 593.853112,119.367685 594.729958,120.681481 C595.646361,121.994954 596.101266,123.809769 596.101266,126.125926 L596.101266,138.259259 C596.101266,139.226944 596.190269,139.95287 596.364979,140.437037 C596.542985,140.92088 596.875923,141.162963 597.367089,141.162963 C597.43961,141.162963 597.525316,141.162963 597.630802,141.162963 C597.736287,141.162963 597.861551,141.145463 598,141.111111 L598,144.222222 C597.545095,144.325926 597.086893,144.394954 596.628692,144.42963 C596.206751,144.498657 595.78481,144.533333 595.362869,144.533333 C594.097046,144.533333 593.114715,144.256574 592.409283,143.703704 C591.707147,143.115833 591.285206,142.06162 591.14346,140.540741 L591.037975,140.540741 C590.124868,141.888889 588.895306,142.977778 587.345992,143.807407 C585.836234,144.602361 583.990243,145 581.808017,145 Z M582.968354,140.903704 C584.517669,140.903704 585.888977,140.644444 587.082278,140.125926 C588.315137,139.607407 589.280986,138.82963 589.983122,137.792593 C590.688555,136.755556 591.037975,135.476435 591.037975,133.955556 L591.037975,130.17037 C590.75778,130.41213 590.319357,130.654213 589.719409,130.896296 C589.159019,131.103704 588.473365,131.311111 587.662447,131.518519 C586.891086,131.69125 586.047205,131.881481 585.130802,132.088889 C583.548523,132.4 582.249736,132.780139 581.227848,133.22963 C580.245517,133.644444 579.523602,134.162963 579.065401,134.785185 C578.64346,135.372731 578.432489,136.133333 578.432489,137.066667 C578.432489,138.311111 578.785206,139.26162 579.487342,139.918519 C580.225738,140.575093 581.386076,140.903704 582.968354,140.903704 Z"
                      id="Shape"/>
                <path d="M608.742515,144.386067 L598,118 L603.552894,118 L611.285429,138.377358 L611.389222,138.377358 L618.706587,118 L624,118 L613.568862,145.274311 C612.702844,147.433853 611.820609,149.158091 610.922156,150.447025 C610.023703,151.735631 609.037675,152.641509 607.964072,153.164006 C606.926148,153.721118 605.716317,154 604.331337,154 C603.776697,154 603.257735,153.965058 602.774451,153.895501 C602.291168,153.860559 601.720309,153.773367 601.061876,153.634253 L601.061876,149.454282 C601.512725,149.488897 601.892216,149.523839 602.203593,149.558781 C602.51497,149.593396 602.862026,149.61103 603.241517,149.61103 C603.932385,149.61103 604.626497,149.454282 605.317365,149.140784 C606.043912,148.861901 606.702345,148.339405 607.289421,147.573295 C607.876497,146.8418 608.363024,145.779173 608.742515,144.386067 Z"
                      id="Path"/>
                <path d="M0,130.375636 L0,13.6243636 C0,6.10887273 6.10887273,0 13.6243636,0 C19.5574909,0 24.8095636,3.84545455 26.6112,9.4932 L41.4222545,56.0794909 C43.3780364,62.2322182 49.9483636,65.6162182 56.0794909,63.6607636 C59.6830909,62.5179273 62.5179273,59.6830909 63.6607636,56.0794909 L78.4714909,9.4932 C80.2734545,3.84545455 85.5255273,0 91.4586545,0 L130.375636,0 C137.891127,0 144,6.10887273 144,13.6243636 C144,19.5574909 140.154545,24.8095636 134.5068,26.6112 L87.9205091,41.4222545 C81.7677818,43.3780364 78.3837818,49.9483636 80.3392364,56.0794909 C82.2950182,62.2322182 88.8656727,65.6162182 94.9964727,63.6607636 C96.4908,63.1770545 97.8532364,62.4298909 99.0399273,61.3973455 L121.519964,42.1913455 C127.233491,37.2910909 135.825382,37.9721455 140.725636,43.6856727 C142.989055,46.3225091 144.153818,49.7506909 143.978073,53.2227273 L142.044218,92.052 C141.714655,98.4904364 136.242982,103.4568 129.804218,103.127236 C127.475018,103.017273 125.233527,102.204327 123.387709,100.797709 L98.4904364,82.1192727 C93.3264,78.2518909 86.0089091,79.3066909 82.1412,84.4488 C81.3501818,85.5032727 80.7568364,86.6680364 80.3614909,87.9205091 L65.5504364,134.5068 C63.7484727,140.154545 58.4967273,144 52.5632727,144 L13.6243636,144 C6.10887273,144 0,137.891127 0,130.375636 Z"
                      id="Path"/>
            </g>
        </g>
    </g>
</svg>