<?xml version="1.0" encoding="UTF-8"?>
<svg width="361px" height="290px" viewBox="0 0 361 290" version="1.1" xmlns="http://www.w3.org/2000/svg">
    <title>NMBU Logo</title>
    <g id="Page-1" stroke="none" stroke-width="1" fill="none" fill-rule="evenodd">
        <g id="Light" transform="translate(-50.000000, -238.000000)" fill="#000000" fill-rule="nonzero">
            <g id="nmbu" transform="translate(50.000000, 238.000000)">
                <path d="M38.304486,225.089386 L52.5534353,225.089386 L52.5534353,290 L38.5295076,290 L14.473971,251.629516 L14.473971,290 L0,290 L0,225.082115 L14.473971,225.082115 L38.304486,262.783642 L38.304486,225.089386 L38.304486,225.089386 Z M169.688074,223.526064 L169.688074,158.608179 L152.542879,158.608179 L137.401102,199.42908 L122.484346,158.608179 L104.664086,158.608179 L104.664086,223.526064 L118.920294,223.526064 L118.920294,186.718903 L132.058653,222.631698 L142.525788,222.631698 L155.664147,187.16245 L155.664147,223.518792 L169.695333,223.518792 L169.688074,223.526064 Z M346.51877,0 L346.51877,39.4829877 C346.51877,45.5108693 344.515352,52.6439837 335.158808,52.6439837 C325.809523,52.6439837 323.806105,45.5108693 323.806105,39.4829877 L323.806105,0 L309.332134,0 L309.332134,39.7011258 C309.332134,55.9887671 319.131462,66.2557982 335.158808,66.2557982 C351.418434,66.2557982 361,56.4395858 361,39.7083971 L361,0 L346.51877,0 L346.51877,0 Z M250.311141,98.5984003 C254.760762,101.725046 257.431987,106.85129 257.431987,112.653762 C257.431987,119.125191 254.985784,124.251435 250.536163,127.821628 C245.411477,131.835368 239.176201,132.286187 233.158687,132.286187 L207.099733,132.286187 L207.099733,67.142893 L233.158687,67.142893 C239.618985,67.142893 244.51865,68.2626683 248.307723,70.7130858 C253.200129,73.8397312 256.096375,79.6422034 256.096375,85.4374044 C256.314137,89.6765539 254.535741,95.2536168 250.311141,98.5984003 L250.311141,98.5984003 Z M221.580962,92.1269714 L234.051515,92.1269714 C240.954598,92.1269714 241.622404,88.7821879 241.622404,86.1063611 C241.622404,82.0926209 238.951179,79.8603415 233.826493,79.8603415 L221.580962,79.8603415 L221.580962,92.1342427 L221.580962,92.1269714 Z M242.740253,112.210215 C242.740253,110.421483 242.740253,104.84442 233.826493,104.84442 L221.355941,104.84442 L221.355941,118.674373 L233.608731,118.674373 C237.165524,118.674373 242.740253,117.787278 242.740253,112.202944 L242.740253,112.210215 Z M313.10669,184.486623 L235.83717,184.486623 L235.83717,158.608179 L221.813243,158.608179 L221.813243,184.486623 L195.972051,184.486623 L195.972051,198.541985 L221.813243,198.541985 L221.813243,275.944638 L83.9693564,275.944638 L83.9693564,290 L230.494722,290 C233.428937,289.960857 235.798095,287.587617 235.83717,284.648346 L235.83717,198.541985 L321.802686,198.541985 C324.738075,198.49894 327.10615,196.123562 327.145135,193.18306 L327.145135,89.6765539 L313.113948,89.6765539 L313.113948,184.486623 L313.10669,184.486623 Z M129.605192,132.060778 L143.636378,132.060778 L143.636378,105.956924 L169.695333,105.956924 L169.695333,91.9088333 L143.636378,91.9088333 L143.636378,14.7243186 L277.923471,14.7243186 L277.923471,0.668956698 L134.954899,0.668956698 C132.019455,0.708009264 129.648163,3.08016439 129.605192,6.02061029 L129.605192,92.1342427 L43.6469346,92.1342427 C40.7127199,92.1733859 38.3435619,94.5466259 38.304486,97.4858962 L38.304486,198.760123 L52.3356725,198.760123 L52.3356725,106.182333 L129.605192,106.182333 L129.605192,132.068049 L129.605192,132.060778 Z"
                      id="Shape"/>
            </g>
        </g>
    </g>
</svg>