<?xml version="1.0" encoding="UTF-8" standalone="no"?>
<!-- Created with Inkscape (http://www.inkscape.org/) -->

<svg
   version="1.1"
   id="svg1"
   width="2461"
   height="482.82474"
   viewBox="0 0 2461 482.82473"
   sodipodi:docname="nordforsk.svg"
   inkscape:version="1.3.2 (091e20ef0f, 2023-11-25, custom)"
   xmlns:inkscape="http://www.inkscape.org/namespaces/inkscape"
   xmlns:sodipodi="http://sodipodi.sourceforge.net/DTD/sodipodi-0.dtd"
   xmlns="http://www.w3.org/2000/svg"
   xmlns:svg="http://www.w3.org/2000/svg">
  <defs
     id="defs1" />
  <sodipodi:namedview
     id="namedview1"
     pagecolor="#ffffff"
     bordercolor="#666666"
     borderopacity="1.0"
     inkscape:showpageshadow="2"
     inkscape:pageopacity="0.0"
     inkscape:pagecheckerboard="0"
     inkscape:deskcolor="#d1d1d1"
     inkscape:zoom="0.30776205"
     inkscape:cx="2527.927"
     inkscape:cy="1127.4944"
     inkscape:window-width="1920"
     inkscape:window-height="1022"
     inkscape:window-x="0"
     inkscape:window-y="0"
     inkscape:window-maximized="1"
     inkscape:current-layer="g1" />
  <g
     inkscape:groupmode="layer"
     inkscape:label="Image"
     id="g1">
    <path
       style="fill:#000000;stroke-width:20.9806"
       d="M 178.36613,473.45456 C 116.57053,458.46779 51.846317,406.67839 23.504914,349.54157 L 8.4726843,319.23632 22.16644,316.90512 35.860197,314.57395 17.746735,275.4505 C -0.57802592,235.87068 -5.0012393,206.13417 4.1479538,184.02821 c 3.9602771,-9.56869 9.6468352,0.87783 55.3684542,101.71469 12.301936,27.13133 15.739694,31.16222 26.576726,31.16222 8.140311,0 11.60962,-2.01644 10.026707,-5.82792 -1.331217,-3.20536 -19.433004,-43.08785 -40.226207,-88.62776 l -37.805818,-82.79981 7.057789,-13.64826 c 3.881785,-7.50655 8.907305,-14.79134 11.167825,-16.18841 2.260518,-1.3971 10.432446,11.58274 18.159839,28.84404 70.167091,156.73782 81.340051,178.24812 92.586241,178.24812 6.10148,0 11.0936,-1.15162 11.0936,-2.55929 0,-1.40759 -23.40551,-54.00899 -52.01226,-116.8919 L 54.128594,83.121312 66.369609,70.880305 c 6.732559,-6.732559 13.060458,-11.303239 14.061999,-10.157091 1.001549,1.146168 27.687612,59.255986 59.302382,129.132916 54.75547,121.02396 58.0823,127.04899 70.15223,127.04899 h 12.67082 L 166.69349,194.51849 C 135.96855,127.20583 108.02774,65.505566 104.60282,57.406774 L 98.375689,42.681709 125.20156,28.383663 c 129.6983,-69.128472 289.37351,-5.711708 339.0665,134.663977 14.33852,40.50427 15.07511,106.80151 1.6688,150.20592 -36.66873,118.7195 -164.64519,190.01311 -287.57079,160.201 z m 97.28179,-35.86263 C 422.16365,406.77524 485.88392,237.35273 395.82219,118.06684 359.58836,70.075469 299.82926,41.00381 237.41304,41.00381 c -29.57773,0 -73.28553,9.297013 -87.55505,18.623694 -4.5043,2.944035 8.07181,34.619467 51.38459,129.422256 l 57.34856,125.52419 h 49.97432 49.97433 l 20.85122,16.31823 c 11.46817,8.97502 20.93066,17.89176 21.02771,19.81499 0.0965,1.92329 -73.25547,3.49674 -163.00568,3.49674 -93.54631,0 -163.182197,1.79007 -163.182197,4.19452 0,7.90426 50.936687,50.75283 73.070017,61.46738 43.5769,21.09522 85.07787,26.82697 128.34706,17.72612 z m 742.70848,-86.45978 c -36.38297,-19.1468 -53.61701,-46.64465 -53.61701,-85.54885 0,-53.24742 40.97851,-93.21097 95.57811,-93.21097 39.3047,0 71.0837,19.63777 86.7661,53.61701 16.1642,35.02309 7.3495,83.24011 -19.7762,108.17708 -26.032,23.93155 -79.8035,32.30479 -108.951,16.96573 z m 77.545,-46.44061 c 12.4258,-11.24515 18.159,-35.89406 12.8344,-55.17839 -9.9816,-36.15025 -55.2315,-47.70676 -84.4779,-21.57509 -13.3504,11.92856 -15.2262,16.47738 -15.2262,36.92317 0,18.31621 2.4453,25.92151 11.399,35.45223 20.1616,21.46109 54.3995,23.44725 75.4707,4.37808 z m 261.2598,44.43396 c -11.5607,-5.87317 -25.5152,-18.29799 -32.6364,-29.05888 -10.7553,-16.25236 -12.4405,-23.62764 -12.4405,-54.44843 0,-30.02621 1.7723,-38.23624 11.2355,-52.04676 25.7423,-37.56839 76.0656,-52.50544 109.812,-32.59459 l 16.4918,9.73041 v -51.1286 -51.128589 h 20.9806 20.9806 V 221.327 354.20391 h -20.9806 c -16.4144,0 -20.9806,-1.67928 -20.9806,-7.71612 0,-6.89176 -1.0148,-6.79767 -9.4994,0.88076 -15.0217,13.59448 -57.8757,14.50204 -82.963,1.75691 z m 80.3858,-44.72708 c 32.7441,-32.74402 11.1896,-90.06496 -33.8672,-90.06496 -21.5776,0 -37.0148,10.54194 -45.6297,31.16021 -21.8358,52.26056 40.1854,98.21633 79.4969,58.90475 z m 362.4668,49.73718 c -35.4168,-14.9788 -56.6044,-46.83941 -56.6383,-85.16929 -0.029,-33.59578 7.8562,-52.96731 29.187,-71.69594 21.7539,-19.10021 45.2691,-26.44909 76.3778,-23.86932 85.6096,7.0994 114.8612,119.05945 44.1559,169.00595 -16.292,11.50866 -24.8793,14.05786 -50.8707,15.1011 -17.1984,0.69026 -36.1937,-0.82726 -42.2117,-3.3725 z m 77.3803,-53.72653 c 16.1703,-18.49437 14.7247,-52.5824 -3.0362,-71.59549 -10.8271,-11.59042 -17.2963,-14.48012 -32.417,-14.48012 -10.3899,0 -23.8878,2.27685 -29.9954,5.05965 -23.696,10.79667 -33.6198,47.16491 -20.037,73.43109 15.6188,30.20339 62.1033,34.32781 85.4856,7.58487 z m 248.234,52.27096 c -8.995,-3.0083 -20.4462,-7.89532 -25.4471,-10.86004 l -9.093,-5.39043 9.0238,-16.75574 c 4.9629,-9.21565 9.1517,-16.75573 9.3086,-16.75573 0.1469,0 8.5156,4.19612 18.5749,9.32469 31.5131,16.06623 76.9289,10.57492 76.9289,-9.30159 0,-9.22157 -14.7097,-15.14967 -51.9305,-20.92834 -61.2853,-9.51477 -74.413,-76.87532 -19.6991,-101.07795 25.9775,-11.49102 73.7037,-10.29999 98.3689,2.45481 l 15.009,7.76153 -7.8855,16.53616 c -6.3439,13.30353 -9.7411,15.93433 -17.3774,13.45753 -47.5109,-15.40989 -77.096,-12.81523 -77.096,6.76145 0,10.07071 2.9912,11.33601 46.234,19.55707 41.1574,7.82458 58.6688,23.45456 58.6688,52.3654 0,23.97296 -13.0245,41.8688 -38.3147,52.64478 -18.0082,7.67326 -62.6247,7.78125 -85.2736,0.20561 z M 708.31022,225.98934 V 97.774769 h 20.48026 20.48025 l 66.93877,86.800911 66.93879,86.8009 1.26849,-86.8009 1.26848,-86.800911 h 23.20887 23.20885 V 225.98934 354.20391 h -20.73966 -20.73969 l -66.67935,-86.32521 -66.67935,-86.32521 -1.26848,86.32521 -1.26849,86.32521 h -23.20887 -23.20887 z m 480.22188,39.62996 v -88.58463 h 20.9806 c 11.5393,0 20.9805,2.15194 20.9805,4.78208 0,2.74111 5.8708,1.74621 13.7556,-2.33117 14.6807,-7.59171 49.9245,-9.46028 59.8343,-3.17235 3.2923,2.08904 5.041,6.77748 3.8862,10.41889 -1.1548,3.64143 -3.2875,12.08596 -4.7392,18.76563 -2.4968,11.48774 -3.8865,12.02503 -25.6845,9.93052 -20.1341,-1.93462 -24.5612,-0.69802 -35.0486,9.78938 l -12.0038,12.00372 v 58.49126 58.49128 h -20.9805 -20.9806 z m 349.6762,-39.62996 V 97.774769 h 93.2469 93.247 v 20.980571 20.98056 h -69.9353 -69.9352 v 32.63643 32.63644 h 65.2729 65.2729 v 20.98057 20.98057 h -65.2729 -65.2729 v 53.61701 53.61699 h -23.3117 -23.3117 z m 428.936,39.62996 v -88.58463 h 20.9806 c 11.5393,0 20.9805,2.15194 20.9805,4.78208 0,2.74111 5.8708,1.74621 13.7555,-2.33117 14.4252,-7.45956 49.8761,-9.49562 59.4434,-3.41404 4.1649,2.64747 4.3705,8.37983 0.8057,22.42841 l -4.7903,18.87198 -24.5379,-2.03491 c -22.3744,-1.85552 -25.4257,-0.90636 -34.6066,10.76538 -9.0837,11.54809 -10.0687,18.44001 -10.0687,70.45088 v 57.65059 h -20.9806 -20.9806 z M 2279.5216,221.327 V 88.450061 h 20.9806 20.9805 v 76.928749 c 0,92.68193 2.0519,94.72013 44.6956,44.38313 l 27.571,-32.54564 27.6211,-0.0902 27.6211,-0.0902 -9.2631,10.49028 c -5.0949,5.76966 -21.1961,23.96069 -35.7803,40.4245 -14.5844,16.4638 -26.5171,31.46501 -26.5171,33.336 0,1.87104 13.9819,20.92046 31.0707,42.33219 17.0891,21.41172 33.0814,41.55298 35.5386,44.75833 3.4601,4.5137 -1.7078,5.76982 -22.9118,5.57026 l -27.3792,-0.25764 -29.299,-37.04111 c -16.1145,-20.37259 -32.3745,-37.04109 -36.1333,-37.04109 -5.4346,0 -6.8343,7.6388 -6.8343,37.29877 v 37.29879 h -20.9805 -20.9806 z"
       id="path2" />
  </g>
</svg>
