<?xml version="1.0" encoding="UTF-8"?>
<svg width="413px" height="544px" viewBox="0 0 413 544" version="1.1" xmlns="http://www.w3.org/2000/svg">
    <title>NTNU Logo</title>
    <g id="Page-1" stroke="none" stroke-width="1" fill="none" fill-rule="evenodd">
        <g id="Light" transform="translate(-51.000000, -256.000000)" fill-rule="nonzero">
            <g id="Group-4" transform="translate(51.000000, 256.000000)">
                <g id="Group-3" transform="translate(3.000000, 0.000000)" fill="#000000">
                    <path d="M307.526055,0 L102.473945,0 C45.8696619,0 0,45.8696619 0,102.460918 L0,307.526055 C0,364.104283 45.8696619,410 102.473945,410 L307.526055,410 C364.104283,410 410,364.104283 410,307.526055 L410,102.460918 C410,45.8696619 364.104283,0 307.526055,0 L307.526055,0 Z M102.473945,102.460918 L307.526055,102.460918 L307.526055,307.539082 L102.473945,307.539082 L102.473945,102.460918 L102.473945,102.460918 Z"
                          id="Shape"/>
                    <path d="M203.707214,120.127389 C157.54153,120.127389 120.127389,157.548678 120.127389,203.694268 C120.127389,249.852801 157.54153,287.261146 203.707214,287.261146 C249.859952,287.261146 287.261146,249.852801 287.261146,203.694268 C287.261146,157.548678 249.859952,120.127389 203.707214,120.127389"
                          id="Path"/>
                </g>
                <g id="Group-2" transform="translate(0.000000, 442.000000)" fill="#000000">
                    <polyline id="Path"
                              points="31.6751976 0 80.1767564 71.2554552 80.1767564 16.430775 80.0343746 3.39936042 65.4576454 3.39936042 65.4576454 0 96.7151899 0 96.7151899 3.39936042 84.6602001 3.39936042 84.5178183 16.430775 84.5178183 101.28687 82.2776785 102 17.2408503 6.37340105 17.2408503 83.1580135 17.380068 96.61155 32.3776144 96.61155 32.3776144 100.014108 0 100.014108 0 96.61155 12.8997883 96.61155 13.035842 83.1580135 13.035842 16.430775 12.8997883 3.39936042 0 3.39936042 0 0 31.6751976 0"/>
                    <path d="M193.43038,0 L193.43038,31.8084154 L189.171147,31.8084154 C188.751313,26.8830364 188.187262,20.6897695 183.774197,13.3716096 C178.672092,4.7855618 171.711179,4.3629325 164.897689,4.08012042 L156.940072,4.08012042 L156.802264,16.7494663 L156.802264,81.6468956 L156.943276,96.003581 L172.278436,96.003581 L172.278436,99.3846154 L125.712111,99.3846154 L125.712111,96.003581 L141.044065,96.003581 L141.188283,81.6468956 L141.188283,16.7494663 L141.044065,4.08012042 L134.515806,4.08012042 C126.282572,4.21993763 120.033134,4.21993763 114.072132,13.6544217 C109.389861,21.1155765 108.960412,27.0260313 108.671977,31.8084154 L104.556962,31.8084154 L104.556962,0 L193.43038,0"
                          id="Path"/>
                    <polyline id="Path"
                              points="235.560237 0 284.060209 71.2554552 284.060209 16.430775 283.914668 3.39936042 269.34158 3.39936042 269.34158 0 300.601266 0 300.601266 3.39936042 288.540343 3.39936042 288.401129 16.430775 288.401129 101.28687 286.161063 102 221.126362 6.37340105 221.126362 83.1580135 221.262411 96.61155 236.262631 96.61155 236.262631 100.014108 203.886076 100.014108 203.886076 96.61155 216.782278 96.61155 216.921491 83.1580135 216.921491 16.430775 216.782278 3.39936042 203.886076 3.39936042 203.886076 0 235.560237 0"/>
                    <path d="M355.422763,0 L355.422763,3.41854526 L341.555017,3.41854526 L341.412703,15.5233471 L341.412703,69.9467163 C341.555017,84.0454015 341.833321,97.4397957 367.895828,97.4397957 C394.230314,97.4397957 395.909624,85.7594981 396.330242,73.0790428 L396.330242,15.5233471 L396.19109,3.41854526 L382.038715,3.41854526 L382.038715,0 L413,0 L413,3.41854526 L400.817889,3.41854526 L400.675574,15.5233471 L400.675574,67.3836113 C400.526935,86.0457168 400.390946,102 364.100778,102 C358.92686,102 346.596109,101.43721 338.74668,98.1569505 C326.27994,92.7413059 326.001637,81.6302298 325.859322,67.9560488 L325.859322,15.5233471 L325.72017,3.41854526 L313.670886,3.41854526 L313.670886,0 L355.422763,0"
                          id="Path"/>
                </g>
            </g>
        </g>
    </g>
</svg>