<?xml version="1.0" encoding="UTF-8"?>
<svg width="500px" height="500px" viewBox="0 0 500 500" version="1.1" xmlns="http://www.w3.org/2000/svg">
    <title>UiO Logo</title>
    <g id="Page-1" stroke="none" stroke-width="1" fill="none" fill-rule="evenodd">
        <g id="Light" transform="translate(-12.000000, -210.000000)" fill="#000000" fill-rule="nonzero">
            <g id="uio" transform="translate(12.000000, 210.000000)">
                <path d="M0,250.010793 C0,189.612744 21.4143856,134.201097 57.0762456,90.9856236 L57.0762456,90.9856236 C102.927208,35.4228727 172.329678,0 249.978413,0 L249.978413,0 C388.070978,0 499.978413,111.945776 500,250.010793 L500,250.010793 C500,388.054224 388.070978,500 249.978413,500 L249.978413,500 C111.929022,500 0,388.054224 0,250.010793 L0,250.010793 Z M3.71297815,250.010793 C3.71297815,318.028753 31.2796822,379.570867 75.8570072,424.146268 L75.8570072,424.146268 C120.434332,468.721668 181.979104,496.287182 249.978413,496.287182 L249.978413,496.287182 C317.999309,496.287182 379.565668,468.721668 424.142993,424.146268 L424.142993,424.146268 C468.720318,379.570867 496.287022,318.028753 496.287022,250.010793 L496.287022,250.010793 C496.287022,182.01442 468.720318,120.450719 424.142993,75.8753184 L424.142993,75.8753184 C379.565668,31.299918 317.999309,3.73440401 249.978413,3.73440401 L249.978413,3.73440401 C173.473793,3.73440401 105.129091,38.6176229 59.9473275,93.3601002 L59.9473275,93.3601002 L59.9473275,93.3601002 C24.8251446,135.949575 3.71297815,190.497777 3.71297815,250.010793 L3.71297815,250.010793 Z"
                      id="Shape"/>
                <g id="Group" transform="translate(57.632399, 344.236760)">
                    <path d="M0.000525138313,5.91519015 C0.0434989718,2.60736471 2.70787665,-0.0432768617 5.95240107,0.000535395697 C9.1969255,0.0443476531 11.8183293,2.76070761 11.7753555,6.06853305 C11.7323817,9.39826461 9.068004,12.0489062 5.82347957,12.0050939 C2.55746823,11.9393755 -0.0424486951,9.22301558 0.000525138313,5.91519015 Z"
                          id="Path"/>
                    <path d="M374.517484,9.48588912 C374.560457,6.17806369 377.224835,3.52742212 380.46936,3.57123437 C383.713884,3.61504663 386.335288,6.33140659 386.292314,9.63923203 C386.24934,12.9470575 383.584962,15.6196052 380.340438,15.5757929 C377.074427,15.5319806 374.47451,12.8156207 374.517484,9.48588912 Z"
                          id="Path"/>
                </g>
                <path d="M420.113595,178.155125 C410.792597,156.154987 397.489186,136.415137 380.526262,119.452212 C363.584863,102.53234 343.845013,89.2074032 321.866401,79.8864052 C299.112833,70.285562 274.916987,65.4205607 250.03229,65.4205607 C225.10454,65.4205607 200.93022,70.285562 178.155125,79.8864052 C156.176513,89.1858766 136.45819,102.53234 119.473738,119.452212 C102.53234,136.415137 89.2289297,156.13346 79.9509849,178.155125 C70.3070886,200.887167 65.4205607,225.083013 65.4205607,249.96771 C65.4205607,274.916987 70.3070886,299.112833 79.9509849,321.844875 C89.2289297,343.80196 102.53234,363.563337 119.473738,380.504735 C136.436663,397.446133 156.154987,410.77107 178.155125,420.070542 C185.043623,422.998153 192.061279,425.45218 199.186569,427.497203 C199.251148,427.518729 199.315728,427.540256 199.380308,427.561783 C202.953716,428.681163 206.591703,429.563752 210.251218,430.295655 C223.23173,433.13716 236.513614,434.579439 250.03229,434.579439 C258.255434,434.579439 266.413998,434.041275 274.464929,432.986474 C274.486455,432.986474 274.507982,432.986474 274.529509,432.986474 C279.222297,432.706629 282.537387,431.996253 284.711569,431.32893 C297.412236,428.917955 309.854584,425.172335 321.866401,420.092068 C343.845013,410.792597 363.584863,397.46766 380.526262,380.526262 L379.213142,379.213142 L380.526262,380.526262 C397.489186,363.584863 410.77107,343.823487 420.092068,321.866401 C429.692911,299.13436 434.579439,274.938513 434.579439,249.989237 C434.579439,225.083013 429.714438,200.908693 420.113595,178.155125 Z M135.511021,389.997945 C135.231176,389.761153 134.757592,388.986197 134.994384,388.383454 C135.102017,388.146662 135.231176,387.866817 135.381862,387.608498 C136.178345,386.123166 137.469938,384.401041 138.567792,383.087922 C140.483655,387.22102 145.111865,395.207372 154.88492,403.83952 C148.125582,399.663368 141.667616,395.056686 135.511021,389.997945 Z M133.961109,280.556944 C137.749783,284.259511 138.417106,287.466968 138.438633,289.64115 C138.438633,290.523738 138.309473,291.212588 138.201841,291.686172 C138.137261,291.922964 138.094208,292.095177 138.051155,292.20281 C138.051155,292.224336 138.029628,292.245863 138.029628,292.267389 C137.857416,292.525708 136.372083,295.32416 132.131352,295.32416 C131.485556,295.32416 130.732126,295.25958 129.914117,295.087368 C122.745775,293.688142 115.642012,290.911216 109.786789,290.179313 C109.700683,290.157787 109.571523,290.179313 109.463891,290.157787 L123.542257,270.848468 C128.14894,275.089199 132.131352,278.791766 133.961109,280.556944 Z M104.491257,248.374745 L196.237431,155.595296 L141.237085,284.733095 C140.419076,282.58044 138.976797,280.212519 136.565822,277.887651 C131.399449,272.915017 110.195794,253.584171 104.491257,248.374745 Z M129.203741,298.725356 C130.237016,298.919094 131.227237,299.026727 132.131352,299.026727 C135.403389,299.048254 137.77131,297.799714 139.235115,296.529647 C140.698921,295.25958 141.301664,294.01104 141.366244,293.860354 L141.366244,293.838828 C141.366244,293.838828 141.366244,293.817301 141.366244,293.817301 C141.366244,293.795775 141.387771,293.774248 141.409297,293.709668 L141.51693,293.472876 L197.938029,161.515099 C198.067188,162.397688 198.325507,164.098285 198.562299,164.916294 C199.444887,179.726564 202.846083,190.123889 206.419491,198.088714 C208.48604,202.695397 210.595642,206.225752 212.231661,208.701306 C213.04967,209.949846 213.760046,210.940067 214.29821,211.650444 C214.470422,211.887236 214.642635,212.102501 214.771794,212.274714 L201.619069,257.71727 C201.403804,258.427646 201.662122,259.224128 202.243339,259.676186 L205.386216,262.173266 C205.386216,262.173266 205.773694,262.539218 205.601482,263.228068 C205.407743,263.916917 190.963425,317.259719 190.963425,317.259719 L145.068811,369.956723 C141.667616,367.136745 131.722348,357.92338 118.548097,337.451627 C107.074443,319.649166 103.651721,308.412305 103.673147,302.018918 C103.673147,298.832988 104.46973,296.895598 105.416899,295.690111 C105.438425,295.668585 105.438425,295.668585 105.459952,295.647058 L105.503005,295.582479 C105.567584,295.517899 105.610637,295.431793 105.675217,295.367213 C106.730018,294.204779 108.021612,293.795775 108.990307,293.795775 C109.119466,293.795775 109.227099,293.795775 109.334731,293.817301 C114.436525,294.463098 121.64792,297.240023 129.203741,298.725356 Z M226.525293,104.53431 C226.202394,103.587141 225.190646,103.070504 224.243478,103.371876 C225.061487,102.639973 225.857969,101.951123 226.632925,101.2838 L234.59775,100.250525 C235.609498,100.121366 236.319875,99.1741978 236.190715,98.1624497 C236.061556,97.1507017 235.135914,96.4403254 234.10264,96.5694847 L232.897153,96.7416972 C235.394233,95.2778915 237.934366,94.093931 240.043969,93.2328688 C241.464721,92.6516518 242.670208,92.1995942 243.53127,91.8982225 C244.392333,91.6183772 244.84439,91.4676914 244.865917,91.4676914 C245.856138,91.1878462 246.415829,90.1545716 246.114457,89.1643501 C245.813085,88.1956551 244.779811,87.6359647 243.811116,87.9158099 C243.746536,87.9373365 240.646712,88.8414518 236.642773,90.6712089 C237.22399,89.8316732 237.030251,88.6907659 236.190715,88.0880224 C235.35118,87.5068054 234.188746,87.7005444 233.607529,88.54008 L229.345271,94.5890417 C228.957793,94.8473604 228.570315,95.0841525 228.204364,95.3424711 C227.6662,95.7299491 227.063456,96.1820067 226.41766,96.698644 L226.848191,95.8591084 C227.321775,94.9549932 226.955824,93.8356123 226.051708,93.3620281 C225.147593,92.8884439 224.028212,93.2543954 223.554628,94.1585106 L218.883366,103.242717 C217.720932,104.319044 216.644604,105.330792 215.718962,106.213381 C215.869648,101.369906 217.161242,92.8238643 222.60746,88.7553455 C227.946045,84.6653002 232.380515,83.7827115 236.083083,83.7827115 C238.257265,83.7827115 240.173128,84.1056098 241.873726,84.3639285 C242.670208,84.4715612 245.53324,85.160411 248.008794,85.7846811 C250.505874,86.4304777 252.766162,87.0116946 252.766162,87.0332212 L253.239746,87.0978009 C255.973619,87.1193274 257.329792,87.8081771 258.061695,88.54008 C258.793597,89.2719828 259.073443,90.2622043 259.094969,91.3600586 C259.116496,92.2857004 258.707491,93.3405016 258.255434,94.1369841 C258.083221,94.4383559 257.932535,94.6536214 257.803376,94.8688869 L243.961802,96.3972723 C243.466691,96.4618519 242.993107,96.7201706 242.691735,97.1076486 L233.97348,108.602829 L229.711223,108.624355 L229.323745,108.667408 C229.151532,108.710461 228.376576,108.882674 227.515514,109.59305 C226.632925,110.2819 225.771863,111.681126 225.814916,113.46783 C225.79339,116.933605 226.998877,119.301526 228.311997,120.679225 C228.441156,120.829911 228.591842,120.959071 228.721001,121.08823 L223.037991,126.77124 C222.155402,126.534448 220.713123,126.039337 219.378477,125.092169 C217.656352,123.886682 216.084914,122.099978 215.568277,118.978628 C215.288431,117.170397 215.180799,115.685065 215.180799,114.501104 C215.180799,113.252564 215.288431,112.348449 215.417591,111.702652 C215.439117,111.681126 215.460644,111.681126 215.48217,111.659599 C215.48217,111.659599 216.321706,110.84159 217.613299,109.59305 L225.448965,106.923757 C226.331554,106.536279 226.848191,105.481478 226.525293,104.53431 Z M254.875765,118.698782 C254.875765,118.698782 254.897291,119.279999 254.423707,119.559845 C253.928596,119.83969 253.605698,120.313274 253.498065,120.872964 C253.411959,121.432655 253.648751,121.949292 253.950123,122.40135 C254.014702,122.508983 254.036229,122.745775 253.90707,122.982567 C253.77791,123.197832 253.541118,123.628363 253.541118,123.628363 C253.2828,124.080421 253.21822,124.618585 253.390432,125.113696 C253.390432,125.113696 253.390432,125.113696 253.411959,125.178275 C253.476539,125.393541 253.605698,125.996284 253.605698,126.642081 C253.605698,127.008032 253.325853,128.041307 252.59395,128.342679 C251.9051,128.644051 250.742666,128.880843 249.192754,128.923896 L245.274921,128.83779 C244.370806,128.816263 243.574324,129.46206 243.423638,130.344648 C243.402111,130.430755 243.316005,130.925865 243.316005,131.700821 C243.316005,132.712569 243.466691,134.240955 244.2847,135.790867 C244.586072,136.39361 245.038129,136.974827 245.576293,137.512991 C245.576293,137.512991 245.576293,137.534517 245.59782,137.534517 L245.59782,137.534517 L252.184945,144.918126 L235.092861,146.080559 L223.446995,136.974827 C224.028212,136.694982 224.351111,136.522769 224.351111,136.522769 C224.975381,136.221398 225.384385,135.575601 225.384385,134.865225 L225.384385,129.483586 L232.8541,121.992345 C233.306157,121.540288 233.499896,120.851438 233.34921,120.227168 C233.176998,119.581371 232.703414,119.08626 232.079144,118.914048 L232.079144,118.914048 C231.734719,118.677256 229.495957,117.96688 229.431377,113.381724 C229.452904,112.628294 229.646643,112.542188 229.797329,112.348449 C229.861909,112.305396 229.926488,112.262343 229.969541,112.21929 L234.834543,112.176237 C235.41576,112.176237 235.953923,111.896391 236.298348,111.444334 C236.298348,111.444334 244.069434,101.154641 244.607598,100.508844 C245.145762,99.841521 245.963771,99.7769413 245.963771,99.7769413 L256.490256,98.6359498 C256.490256,98.6359498 257.02842,98.6145074 257.114526,99.260304 C257.200632,100.228999 257.308265,101.412959 257.437424,102.704553 C257.458951,103.242717 257.114526,103.436456 256.899261,103.457982 C255.564614,103.501035 254.165388,103.544088 252.680056,103.587141 C251.130144,103.651721 249.429546,104.362097 248.310165,105.309266 C247.47063,105.998115 247.449103,107.311235 248.224059,108.064665 C248.65459,108.473669 249.580232,108.624355 250.59198,108.925727 C251.862047,109.313205 253.2828,109.786789 253.993176,109.571523 C254.897291,109.270152 255.241716,108.473669 255.306296,107.59108 C255.370875,106.622386 255.952092,105.933536 256.942314,105.933536 C257.351318,105.933536 257.609637,106.277961 257.65269,106.622386 C257.846429,108.473669 258.169327,110.798537 258.298487,112.133183 C258.363066,112.77898 258.406119,113.381724 258.449173,113.898361 C258.470699,114.565684 257.889482,114.608737 257.58811,114.65179 C256.96384,114.737896 256.490256,114.737896 256.490256,114.759423 C255.995145,114.78095 255.521561,114.996215 255.198663,115.383693 C254.854238,115.749645 254.703552,116.244755 254.725079,116.739866 L254.875765,118.698782 Z M233.370737,149.460228 C233.693635,149.718547 234.10264,149.847706 234.511644,149.847706 C234.554697,149.847706 234.59775,149.847706 234.640804,149.847706 L256.210411,148.383901 C256.920787,148.340848 257.545057,147.88879 257.803376,147.221467 C258.083221,146.57567 257.932535,145.822241 257.480478,145.284077 L253.605698,140.935713 C255.865986,141.624563 257.803376,142.227306 259.310235,142.679364 C260.472669,142.980736 262.582271,144.832019 264.368975,147.26452 C266.069573,149.481755 267.619485,152.107995 268.652759,154.239124 C267.89933,158.07085 266.801476,161.837997 265.639042,165.626671 L256.081252,172.881119 L235.265074,158.867333 C234.210272,157.317421 229.366798,150.256711 224.717062,145.585449 C222.241508,143.152948 218.754207,142.184253 215.266905,142.184253 C214.621108,142.184253 213.975311,142.227306 213.329515,142.291886 C214.23363,141.796775 215.159272,141.301664 216.041861,140.82808 C217.398034,140.117704 218.711153,139.428854 219.852061,138.826111 L233.370737,149.460228 Z M215.245378,145.908347 C218.086883,145.908347 220.60549,146.726356 222.090822,148.211688 C224.501797,150.622662 227.10651,153.894699 229.065426,156.563991 C231.045869,159.233284 232.380515,161.235254 232.380515,161.25678 C232.509675,161.472046 232.681887,161.644258 232.897153,161.773417 L255.112557,176.734373 C255.77988,177.18643 256.640942,177.164904 257.265212,176.669793 L285.551104,155.164765 L285.680264,155.057133 C285.680264,155.057133 286.304534,154.497442 287.122543,153.808592 C287.940552,153.119743 288.973826,152.301734 289.598097,151.914256 C291.061902,150.945561 297.304603,147.242993 301.287015,147.135361 C301.63144,147.113834 301.975865,147.113834 302.298764,147.113834 C304.214627,147.092307 305.613853,147.436732 306.324229,147.910317 C306.991552,148.383901 307.292924,148.771379 307.357504,150.170605 C307.357504,152.430893 307.400557,155.767509 307.400557,155.767509 C307.400557,156.671624 308.046353,157.274368 308.928942,157.425054 C309.617792,157.425054 310.56496,157.618793 310.56496,158.69512 C310.56496,159.922134 309.725425,160.094346 309.337947,160.158926 C308.670624,160.245032 308.024827,160.331138 307.766508,160.352665 L306.022857,160.352665 L305.549273,160.417245 C305.549273,160.417245 303.159826,161.041515 300.598166,161.644258 C299.328099,161.94563 297.993453,162.268528 296.917125,162.483794 C296.378961,162.591427 295.905377,162.699059 295.539425,162.763639 C295.367213,162.785166 295.216527,162.806692 295.108894,162.828219 C295.001262,162.849745 294.979735,162.828219 294.979735,162.849745 C293.343717,162.849745 290.803584,163.12959 290.76053,163.12959 C290.243893,163.19417 289.748782,163.474015 289.447411,163.904546 C289.447411,163.926073 286.304534,168.360543 282.386701,173.591496 C278.468868,178.822448 273.711499,184.892937 270.676255,187.928181 C267.511852,191.092584 264.907139,193.482032 263.077382,195.074997 C262.517691,195.570108 262.022581,195.979112 261.613576,196.323537 C261.39831,196.495749 260.9032,196.732542 260.365036,196.517276 C257.65269,195.397895 251.862047,193.073027 244.887443,190.102363 C235.157441,185.947738 223.10257,180.544573 213.975311,175.658045 C212.167081,174.732403 208.938098,172.75196 206.268805,169.931982 C205.98896,169.63061 205.709115,169.307711 205.429269,168.984813 C205.343163,168.87718 205.257057,168.769548 205.170951,168.683441 C204.955685,168.425123 204.761946,168.166804 204.568207,167.930012 C204.417521,167.736273 204.288362,167.521007 204.137676,167.327268 C204.008517,167.155056 203.900884,166.982844 203.793251,166.789105 C203.664092,166.595366 203.534933,166.3801 203.405773,166.164835 C203.36272,166.078728 203.319667,165.992622 203.255087,165.906516 C202.996769,165.454458 202.781503,165.002401 202.587764,164.528816 C202.566238,164.464237 202.523185,164.399657 202.501658,164.335077 C202.394025,164.055232 202.286393,163.775387 202.200286,163.495542 C202.200286,163.495542 202.200286,163.495542 202.200286,163.495542 C202.200286,163.495542 202.200286,163.495542 202.200286,163.474015 C202.028074,162.978905 201.898915,162.462267 201.791282,161.94563 C201.748229,161.730364 201.705176,161.493572 201.662122,161.278307 C201.640596,161.106094 201.619069,160.933882 201.597543,160.761669 C201.55449,160.331138 201.511437,159.900607 201.511437,159.44855 C201.511437,159.147178 201.532963,158.867333 201.55449,158.565961 C201.576016,158.329169 201.597543,158.07085 201.640596,157.812532 C201.640596,157.769478 201.640596,157.726425 201.640596,157.683372 C201.726702,157.080629 201.855861,156.477885 202.028074,155.853615 C202.028074,155.853615 202.028074,155.853615 202.028074,155.853615 L202.028074,155.853615 C202.135707,155.487664 202.243339,155.100186 202.394025,154.712708 C202.394025,154.691181 202.415552,154.669655 202.415552,154.648128 C202.544711,154.303703 202.695397,153.916225 202.846083,153.550274 C202.86761,153.507221 202.889136,153.442641 202.910663,153.399588 C203.061348,153.055163 203.233561,152.710738 203.4273,152.366313 C203.470353,152.301734 203.513406,152.215627 203.556459,152.129521 C203.793251,151.720517 204.030043,151.289986 204.288362,150.859454 L204.288362,150.859454 C205.967433,147.996423 210.789381,145.865294 215.245378,145.908347 Z M273.324022,117.643981 C273.324022,116.825972 273.603867,116.696813 273.754553,116.718339 C276.574531,117.170397 278.124443,118.397411 279.114665,119.559845 C279.717408,120.291747 280.08336,121.045177 280.298625,121.583341 C280.406258,121.863186 280.470838,122.078451 280.513891,122.229137 C280.535417,122.293717 280.535417,122.358297 280.556944,122.379823 L280.556944,122.379823 C280.70763,123.262412 281.482586,123.929735 282.386701,123.929735 L318.551312,123.929735 C319.476954,123.929735 320.25191,123.262412 320.381069,122.358297 C320.424122,122.186084 320.703967,121.002124 321.866401,119.90427 C322.835096,119.000154 324.428061,118.009933 327.31262,117.643981 C327.700097,117.557875 327.764677,117.945353 327.764677,118.289778 C327.764677,122.121505 327.635518,130.107856 327.635518,141.689142 C327.635518,151.117773 330.068018,158.738173 332.392886,166.272467 C334.739281,173.828288 336.978042,181.298002 336.978042,190.855792 C336.978042,195.957586 336.009347,200.844113 334.115011,205.278584 C332.457466,204.352942 331.05824,203.793251 330.283284,203.577986 C330.024965,203.513406 329.766647,203.470353 329.508328,203.470353 C328.044522,203.534933 327.097354,204.180729 326.171712,204.826526 C325.267597,205.558429 324.557221,206.075066 324.040583,207.2375 C323.889897,207.624978 323.825318,208.012456 323.825318,208.378407 C323.846844,209.390155 324.191269,210.079005 324.449588,210.617169 C324.06211,210.940067 323.610052,211.306019 323.157995,211.715023 C322.555251,212.253187 321.930981,212.834404 321.392817,213.458674 C320.854653,214.082944 320.359543,214.664161 320.058171,215.568277 C319.885958,216.127967 319.778326,216.709184 319.778326,217.311927 C319.778326,218.452835 320.101224,219.486109 320.617861,220.540911 C314.999431,223.79142 307.960247,225.707284 299.478785,225.72881 C287.101016,225.72881 278.253602,221.466552 272.355327,215.309958 C267.985436,210.703275 265.27309,204.977212 264.175236,199.035883 C266.004993,197.485971 269.21245,194.665992 273.280968,190.597474 C273.969818,189.908624 274.723248,189.090615 275.51973,188.1865 C276.83285,192.836235 279.437563,196.711015 282.838758,199.595573 C287.596127,203.642565 293.817301,205.816747 300.253741,206.010486 C300.361374,206.032013 300.490533,206.05354 300.598166,206.05354 C300.641219,206.05354 300.705798,206.05354 300.748852,206.032013 C300.899537,206.032013 301.050223,206.05354 301.200909,206.05354 C315.12859,206.010486 325.568969,193.675771 325.590495,180.027935 C325.590495,173.892868 324.148216,169.609083 322.81357,163.000431 C321.457397,156.370252 320.12275,147.156887 320.12275,130.947392 C320.12275,130.452281 319.929011,129.978697 319.584587,129.634272 C319.240162,129.289847 318.766577,129.096108 318.271467,129.096108 L282.558913,129.096108 C282.063803,129.096108 281.590218,129.289847 281.245793,129.634272 C280.901369,129.978697 280.70763,130.452281 280.70763,130.947392 C280.70763,142.550205 279.9542,150.019919 279.007032,155.57377 L270.611676,161.94563 C271.278999,159.534656 271.881742,157.080629 272.355327,154.583548 C272.39838,154.475916 272.39838,154.368283 272.419906,154.26065 C273.02265,151.031667 273.388601,147.716578 273.410128,144.293855 C273.410128,132.02372 273.345548,122.293717 273.324022,117.643981 Z M324.815539,220.282592 C323.803791,218.861839 323.480893,217.914671 323.502419,217.290401 C323.502419,217.075135 323.523946,216.881396 323.610052,216.644604 L323.610052,216.644604 C323.760738,216.300179 324.858592,215.116219 325.848814,214.276683 C326.839035,213.394095 327.743151,212.726771 327.743151,212.726771 C328.259788,212.403873 328.604213,211.564337 328.56116,211.069227 C328.539633,210.337324 328.345894,210.079005 328.216735,209.777633 C328.087575,209.519315 327.958416,209.282523 327.850783,209.088784 C327.721624,208.808938 327.635518,208.184668 328.195208,207.646505 C328.819478,207.000708 329.723594,207.259027 329.895806,207.345133 C330.584656,207.624978 331.704037,208.141615 332.801891,208.787412 C334.416382,209.73458 336.052401,211.0477 336.633618,212.167081 C337.236361,213.200356 337.731472,214.578055 337.709945,215.503697 C337.709945,216.127967 337.451627,216.580025 337.150255,216.924449 C336.547511,217.613299 331.101293,222.176929 330.541603,222.521354 C329.960386,222.930358 327.635518,223.92058 325.655075,224.652482 C325.073858,224.867748 324.514167,225.061487 324.019057,225.255226 C323.330207,225.535071 323.222574,225.083013 323.222574,225.083013 C323.222574,225.083013 323.093415,224.674009 323.351734,224.41569 C323.674632,224.157372 323.976004,223.877526 324.277375,223.554628 C324.600274,223.124097 325.095384,222.715093 325.159964,221.552659 C325.224544,221.143654 325.095384,220.67007 324.815539,220.282592 Z M330.261757,348.968333 C330.261757,348.968333 330.326337,349.506497 329.895806,349.764816 C329.465275,350.001608 316.420183,357.320636 316.420183,357.320636 L314.913324,227.084983 C316.398657,226.611399 317.819409,226.051708 319.175582,225.427438 L330.261757,348.968333 Z M270.568623,409.199632 C270.568623,409.199632 275.369044,415.420806 275.562783,415.700651 C275.756522,415.980496 275.605836,416.303395 275.476677,416.411027 C268.200702,422.352356 256.40415,426.506981 242.907,427.992314 C245.038129,418.197731 253.21822,379.60062 259.310235,340.293132 C265.574462,299.780157 268.351387,261.312204 268.889551,253.304326 C268.889551,253.304326 273.754553,252.981428 274.615615,252.895322 C275.45515,252.809215 275.562783,253.304326 275.562783,253.820963 C275.541257,254.337601 270.224198,407.951092 270.224198,407.951092 C270.159618,408.424676 270.310304,408.855207 270.568623,409.199632 Z M205.902854,256.296517 C205.902854,256.296517 217.957724,214.621108 218.129936,214.061418 C218.280622,213.501727 218.840313,213.351041 218.840313,213.351041 C218.840313,213.351041 227.6662,210.875488 229.065426,210.42343 C230.464652,209.971372 232.78952,209.79916 232.78952,209.79916 L263.120435,207.947876 C264.7134,211.499758 266.887582,214.8579 269.686034,217.807038 C272.140061,220.411751 275.089199,222.672039 278.490395,224.501797 C278.490395,224.501797 278.425815,247.578263 278.425815,248.008794 C278.425815,248.439325 278.210549,248.934436 277.241854,249.020542 C276.273159,249.106648 246.738727,251.151671 239.376645,251.689835 C238.321844,251.754414 237.073304,251.948153 235.953923,252.249525 C234.834543,252.572423 209.11031,259.611606 209.11031,259.611606 C209.11031,259.611606 208.227722,259.740766 207.79719,259.417867 C207.366659,259.073443 207.129867,258.879704 206.333385,258.255434 C205.515376,257.609637 205.902854,256.296517 205.902854,256.296517 Z M217.290401,209.497788 C214.362789,205.472323 205.838274,193.546612 202.953716,171.783265 C203.147455,172.020057 203.36272,172.235323 203.556459,172.450588 C206.634757,175.679572 210.143585,177.832227 212.231661,178.908555 C230.809077,188.853823 260.623355,200.607321 260.666408,200.628848 C260.687934,200.628848 260.709461,200.628848 260.730987,200.650374 C260.989306,201.898915 261.333731,203.104402 261.742735,204.331415 L233.758215,206.032013 C233.758215,206.032013 230.464652,206.182699 228.096731,206.850022 C225.233699,207.646505 218.689627,209.519315 218.259096,209.670001 C217.699405,209.842213 217.398034,209.626948 217.290401,209.497788 Z M279.286877,252.378684 L280.64305,252.098839 C281.504112,251.926627 282.128382,251.151671 282.128382,250.290608 L282.192962,226.245447 C287.144069,228.247417 292.891659,229.388324 299.435732,229.388324 C299.457258,229.388324 299.478785,229.388324 299.500311,229.388324 C303.69799,229.388324 307.615822,228.91474 311.232284,228.096731 L312.954408,377.082013 L312.954408,377.168119 C312.954408,377.168119 312.954408,377.275752 312.954408,377.534071 C312.975934,379.062456 312.56693,384.401041 308.197039,387.543918 C302.772348,391.504804 290.631371,397.812085 274.228137,398.242616 L279.286877,252.378684 Z M278.554974,184.526985 C282.881812,179.209926 287.660707,172.68738 290.351526,168.984813 L290.351526,199.918472 C288.500242,199.057409 286.778118,197.981082 285.271259,196.689488 C281.762431,193.718824 279.308404,189.671832 278.554974,184.526985 Z M294.054093,201.274644 L294.054093,166.552313 C294.376992,166.530786 294.69989,166.530786 294.958209,166.530786 C295.711638,166.509259 296.486594,166.337047 297.670554,166.100255 C298.014979,166.014149 298.380931,165.949569 298.768409,165.863463 L298.768409,202.157233 C297.153917,202.006547 295.582479,201.705176 294.054093,201.274644 Z M302.470976,202.221813 L302.470976,164.980874 C304.171574,164.57187 305.656906,164.184392 306.216596,164.055232 L306.905446,164.055232 L306.905446,201.403804 C305.484694,201.834335 303.999361,202.11418 302.470976,202.221813 Z M313.966156,156.563991 C313.75089,155.896668 313.341886,154.906447 312.071819,154.475916 C311.748921,154.389809 311.382969,154.282177 311.060071,154.217597 C311.060071,153.055163 311.038545,151.419145 311.038545,150.149078 C311.060071,149.266489 310.909385,148.405427 310.608013,147.630471 L310.608013,132.712569 L316.420183,132.712569 C316.506289,147.996423 317.862462,157.080629 319.175582,163.667754 C320.574808,170.534725 321.887928,174.474084 321.866401,179.963356 C321.866401,185.861632 319.606113,191.480062 315.860493,195.591634 C314.332107,197.292232 312.545403,198.712985 310.586487,199.810839 L310.586487,163.75386 C310.715646,163.732334 310.866332,163.710807 310.973965,163.710807 C311.146177,163.689281 311.31839,163.667754 311.426022,163.667754 C311.533655,163.667754 311.576708,163.667754 311.576708,163.667754 C312.265558,163.667754 312.760669,163.323329 312.997461,163.086537 C313.793943,162.203949 313.772417,161.687311 313.987682,160.976935 C314.138368,160.288085 314.202948,159.513129 314.224475,158.738173 C314.246001,157.963217 314.202948,157.274368 313.966156,156.563991 Z M306.905446,132.712569 L306.905446,144.100116 C305.5708,143.605006 304.085468,143.432793 302.470976,143.411267 L302.470976,132.712569 L306.905446,132.712569 Z M298.768409,132.712569 L298.768409,143.777218 C297.153917,144.121643 295.539425,144.681333 294.054093,145.32713 L294.054093,132.712569 L298.768409,132.712569 Z M290.351526,132.712569 L290.351526,147.178414 C289.102986,147.867263 288.155817,148.470007 287.617654,148.792905 C285.938582,149.847706 283.678294,151.871203 283.247763,152.258681 L283.247763,152.280207 C283.89356,147.3291 284.367144,141.107925 284.431723,132.712569 L290.351526,132.712569 L290.351526,132.712569 Z M143.583479,377.318805 C144.057063,376.780641 194.020196,319.412374 194.020196,319.412374 C194.213935,319.197109 194.343094,318.960316 194.407674,318.680471 C194.407674,318.680471 209.196416,264.110656 209.304049,263.744705 C209.411682,263.357227 209.79916,263.249594 209.79916,263.249594 C209.79916,263.249594 236.018503,256.081252 237.008725,255.77988 C238.020473,255.500035 239.462752,255.370875 239.462752,255.370875 L254.014702,254.359127 C253.84249,256.059725 253.541118,258.793597 253.067534,262.302426 C250.59198,280.750683 243.03616,320.531755 224.609429,342.208995 C197.163073,374.649512 159.168704,377.964602 144.939652,377.964602 C144.616754,377.964602 144.315382,377.964602 144.035537,377.964602 C143.497373,377.943075 143.131422,377.856969 143.583479,377.318805 Z M142.70089,381.645642 C143.368214,381.667169 144.121643,381.667169 144.939652,381.667169 C159.663815,381.667169 198.86367,378.2875 227.429408,344.619969 C250.936405,316.700028 256.834681,263.443333 257.760323,254.122335 L265.122404,253.605698 C264.864086,257.415898 264.218289,266.457051 263.055855,278.662607 C261.52747,295.044315 259.116496,317.087506 255.607667,339.754968 C252.098839,362.422429 247.879634,384.896152 244.543019,401.686864 C242.067465,414.107686 240.087022,423.407158 239.22596,427.411097 C239.139853,427.777048 238.687796,428.444371 237.826734,428.444371 C235.781711,428.444371 233.736688,428.63811 231.648613,428.618253 C224.889274,428.618253 217.893144,427.992314 211.004647,426.657667 C207.388186,425.861185 203.814778,424.978596 200.262896,423.945321 C174.710877,415.89439 159.879081,404.506843 151.419145,395.293478 C147.178414,390.665269 144.530648,386.553697 142.959209,383.626085 C142.70089,383.152501 142.485625,382.72197 142.291886,382.312966 C142.098147,381.882434 142.334939,381.624116 142.70089,381.645642 Z M249.214281,430.833819 C259.805345,429.004062 269.169397,425.538286 276.014841,420.608706 L281.848537,422.287777 C282.063803,422.352356 282.279068,422.373883 282.494334,422.373883 C282.494334,422.373883 287.919025,422.072511 288.371083,422.050985 C289.920995,421.964878 290.609845,422.868994 290.609845,423.191892 C290.609845,423.51479 290.652898,423.923795 290.652898,423.923795 C290.652898,423.923795 290.717477,424.89249 290.093207,425.51676 C289.51199,426.097977 285.335839,427.238884 283.807453,427.733995 C272.742805,429.822071 261.46289,430.898398 250.010763,430.898398 C249.752445,430.855345 249.494126,430.833819 249.214281,430.833819 Z M416.690873,320.402596 C407.542087,341.92915 394.540048,361.259996 377.900022,377.900022 C361.281522,394.496995 341.950676,407.542087 320.424122,416.669346 C311.94266,420.264281 303.267458,423.170366 294.441571,425.387601 L294.226306,421.792666 C294.226306,419.618484 291.772278,418.542156 290.416106,418.542156 L282.645019,418.671316 C282.645019,418.671316 280.255572,418.090099 279.9542,418.003992 C279.652828,417.917886 279.738935,417.616515 279.781988,417.551935 C280.320152,416.884612 280.363205,415.937443 279.825041,415.248594 L273.883712,407.499034 L274.077451,401.988236 C291.51396,401.557705 304.365313,394.949053 310.349695,390.579162 C316.247971,386.209272 316.613922,379.557567 316.635449,377.577124 C316.635449,377.297278 316.635449,377.103539 316.613922,377.017433 L316.44171,361.561367 C316.506289,361.539841 316.549342,361.518314 316.613922,361.496788 L316.613922,361.496788 L333.146316,352.218843 C333.792112,351.852891 334.136537,351.164042 334.093484,350.432139 L323.244101,229.495957 C323.717685,229.345271 325.24607,228.807107 326.989721,228.161311 C329.099324,227.343302 331.338085,226.48224 332.651205,225.621177 C333.835165,224.781642 338.807799,220.60549 340.013287,219.35695 C341.068088,218.237569 341.455566,216.79529 341.455566,215.525223 C341.434039,213.54478 340.68061,211.758076 339.905654,210.35885 C339.216804,209.17489 338.291162,208.206195 337.257888,207.366659 C339.539702,202.286393 340.702136,196.667962 340.68061,190.855792 C340.68061,180.716785 338.248109,172.730434 335.923241,165.174613 C333.576847,157.618793 331.316559,150.471977 331.316559,141.689142 C331.316559,125.393541 331.488771,115.706591 331.488771,115.685065 C331.488771,115.189954 331.295032,114.71637 330.950607,114.350419 C330.606182,113.984467 330.132598,113.790728 329.637487,113.790728 C324.169743,113.769202 320.768547,115.577432 318.895737,117.600928 C318.013148,118.548097 317.496511,119.473738 317.152086,120.248694 L283.699821,120.248694 C283.376922,119.409159 282.817232,118.332831 281.913117,117.234977 C280.104886,114.996215 276.703691,112.84356 271.408158,112.865086 C270.913047,112.865086 270.439463,113.058825 270.095038,113.424777 C269.750614,113.769202 269.556875,114.242786 269.556875,114.737896 C269.556875,114.759423 269.664507,127.029559 269.664507,144.229276 C269.664507,145.585449 269.599928,146.920095 269.492295,148.254741 C268.803445,147.178414 268.071542,146.102086 267.296586,145.068811 C265.230037,142.421045 263.055855,140.074651 260.365036,139.192062 C257.954062,138.460159 254.359127,137.340778 250.139923,136.049185 C248.590011,135.554074 247.965741,134.865225 247.513683,134.068742 C247.255364,133.616685 247.126205,133.100047 247.040099,132.626463 L249.085121,132.669516 L249.192754,132.669516 C251.044038,132.604937 252.615476,132.368144 253.971649,131.808454 C255.306296,131.27029 256.511783,130.280069 256.96384,128.794736 C257.200632,128.041307 257.265212,127.309404 257.265212,126.663608 C257.265212,125.931705 257.179106,125.307435 257.071473,124.83385 L257.954062,123.283939 C258.233907,122.788828 258.27696,122.186084 258.061695,121.669447 C258.470699,121.303496 258.685965,120.743805 258.642912,120.184115 L258.513752,118.289778 C258.599858,118.268251 258.685965,118.246725 258.793597,118.246725 C259.353288,118.139092 259.934505,118.009933 260.558775,117.730088 C260.860147,117.579402 261.183045,117.407189 261.52747,117.062764 C261.871895,116.739866 262.237846,116.115596 262.237846,115.40522 C262.237846,114.910109 262.130213,113.726148 261.958001,111.853338 C261.548996,107.289709 260.83862,99.5401492 260.601828,97.1291751 C261.355257,96.1174271 262.668377,94.0293513 262.71143,91.2954789 C262.71143,89.551828 262.21632,87.4852788 260.601828,85.8707873 C259.051916,84.2993488 256.619415,83.373707 253.390432,83.3306539 C251.948153,82.9431759 244.478439,80.9627329 242.304257,80.6398346 C240.689765,80.4030425 238.53711,80.0370911 235.996976,80.0370911 C231.670139,80.0155645 226.202394,81.1779984 220.261065,85.7846811 C212.576085,91.8336428 211.951815,102.6615 211.908762,107.461921 C211.908762,108.387563 211.930289,109.119466 211.973342,109.52847 C211.715023,110.303426 211.327545,111.896391 211.327545,114.436525 C211.327545,115.835751 211.435178,117.514822 211.758076,119.495265 C212.511506,124.295687 215.48217,127.201771 218.10841,128.70863 C219.443056,129.483586 220.691596,129.935644 221.638765,130.215489 L221.638765,133.745844 C220.174959,134.477747 210.940067,138.546265 202.0496,144.659807 C201.855861,144.832019 201.123959,145.241024 200.435109,146.037506 C200.413582,146.059033 200.392056,146.059033 200.370529,146.080559 L100.422738,247.147732 C100.078313,247.492156 99.8845741,247.987267 99.8845741,248.503904 C99.9061006,248.999015 100.121366,249.494126 100.487318,249.817024 C100.508844,249.838551 107.375815,256.081252 114.996215,263.055855 C116.890552,264.799506 118.849468,266.564683 120.743805,268.308334 L102.424707,293.429823 C100.874796,295.38874 99.8845741,298.251771 99.9061006,302.040445 C99.9276272,309.703898 103.716301,321.349764 115.362167,339.496649 C128.644051,360.140615 138.804584,369.655352 142.571731,372.776702 L137.728256,378.330553 C137.556044,378.502765 136.006132,380.138784 134.413167,382.269912 C133.573631,383.367767 132.734096,384.59478 132.066773,385.84332 C131.89456,386.144692 131.743874,386.446064 131.614715,386.768962 C128.342679,383.927457 125.156749,380.978319 122.056925,377.878495 C105.459952,361.259996 92.4148598,341.92915 83.3306539,320.381069 C73.8804966,298.122612 69.1016015,274.421876 69.1016015,249.96771 C69.1016015,225.578124 73.8804966,201.898915 83.3306539,179.597404 C92.4363863,158.027797 105.459952,138.696951 122.056925,122.078451 C138.696951,105.481478 158.00627,92.4363863 179.554351,83.3091273 C201.877388,73.9020231 225.535071,69.1231281 249.96771,69.1231281 C274.378823,69.1231281 298.058032,73.8804966 320.359543,83.3091273 C341.907623,92.4363863 361.238469,105.481478 377.835442,122.078451 C394.453942,138.696951 407.477507,158.027797 416.626293,179.597404 C426.033397,201.898915 430.812938,225.578124 430.812938,249.96771 C430.876872,274.421876 426.097977,298.122612 416.690873,320.402596 Z"
                      id="Shape"/>
                <g id="Group" transform="translate(17.133956, 17.133956)">
                    <path d="M20.6141156,247.56746 C22.764444,247.286379 24.6106855,247.308 26.1311197,247.632325 C27.6732744,247.956649 28.9765037,248.583676 30.0408077,249.513405 C31.1051116,250.443134 31.9522107,251.697188 32.5821048,253.253944 C33.211999,254.789078 33.6681292,256.670159 33.9504956,258.853941 C34.189421,260.7134 34.2111415,262.464751 34.0373776,264.043128 C33.8418932,265.621506 33.3640424,267.026911 32.6038253,268.237721 C31.8436082,269.448531 30.8010248,270.443126 29.4543545,271.243125 C28.1076842,272.021503 24.9147724,272.691773 24.9147724,272.691773 C24.6106855,272.756638 24.1111143,272.843124 23.8070275,272.886368 L7.29945616,275.026907 C6.99536932,275.070151 6.73472346,275.351232 6.71300297,275.653934 L6.58268004,278.075555 C6.56095955,278.378257 6.30031369,278.68096 5.99622685,278.724203 L5.25773024,278.810689 C4.9536434,278.853933 4.67127705,278.637717 4.62783607,278.335014 L3.17256334,267.264749 C3.12912236,266.962046 3.34632725,266.680965 3.67213458,266.637722 L4.3889107,266.551235 C4.69299754,266.507992 5.01880487,266.724208 5.12740731,267.005289 L5.88762441,269.275558 C5.97450636,269.578261 6.32203418,269.772856 6.62612102,269.729612 L25.0885363,267.329613 C27.3474671,267.026911 29.0416652,266.140425 30.1711306,264.60529 C31.300596,263.091777 31.6915648,260.994481 31.344037,258.356644 C30.9747887,255.6107 30.0408077,253.707998 28.5203735,252.648539 C26.9999393,251.58908 22.4169162,251.610701 22.4169162,251.610701 C22.1128293,251.610701 21.5915376,251.653945 21.2874508,251.697188 L4.51923363,253.880971 C4.21514679,253.924214 3.93278044,254.205295 3.93278044,254.507997 L3.78073702,256.929618 C3.75901653,257.253942 3.49837067,257.535023 3.19428383,257.578266 L2.47750771,257.664753 C2.17342087,257.707996 1.89105452,257.49178 1.84761354,257.167456 L0.544384227,247.243136 C0.50094325,246.940433 0.718148135,246.659352 1.02223497,246.616109 L1.76073159,246.529622 C2.06481842,246.486379 2.39062575,246.702595 2.4992282,246.983676 L3.25944529,249.297189 C3.34632725,249.57827 3.69385506,249.794486 3.9979419,249.751243 L20.6141156,247.56746 Z"
                          id="Path"/>
                    <path d="M0.674707158,221.81612 C0.696427647,221.513417 0.935353021,221.124228 1.19599888,220.972877 L24.5020831,207.135045 L4.99708438,205.708019 C4.69299754,205.686397 4.36719021,205.902613 4.28030826,206.205316 L3.65041409,208.497207 C3.56353213,208.799909 3.23772481,209.016125 2.93363797,208.994504 L2.19514136,208.95126 C1.89105452,208.929639 1.65212914,208.648558 1.67384963,208.345855 L2.39062575,198.810724 C2.41234624,198.508022 2.69471259,198.270184 2.99879943,198.291806 L3.73729604,198.35667 C4.04138288,198.378292 4.32374923,198.659373 4.36719021,198.962076 L4.64955656,201.383696 C4.69299754,201.686399 4.97536389,201.96748 5.27945073,201.989101 L32.9079121,204.064776 C33.211999,204.086398 33.4509244,204.367479 33.4292039,204.670181 L33.211999,207.372883 C33.1902785,207.675585 32.9513531,208.064774 32.6907073,208.216126 L5.75730148,223.935038 L28.455212,225.643145 C28.7592988,225.664767 29.0851062,225.448551 29.1719881,225.145848 L29.8018823,222.853957 C29.8887642,222.551254 30.1928511,222.335038 30.5186584,222.35666 L31.257155,222.399903 C31.5612419,222.421525 31.8001672,222.680984 31.7784467,223.005308 L31.0399501,232.562061 C31.0182296,232.864764 30.7358633,233.102601 30.4317765,233.08098 L29.6932798,233.016115 C29.389193,232.994493 29.1068267,232.713412 29.0633857,232.41071 L28.7810193,230.010711 C28.7375783,229.708008 28.455212,229.426927 28.1511252,229.405306 L3.32460676,227.524225 C3.02051992,227.502604 2.69471259,227.71882 2.60783064,228.021522 L1.97793647,230.356656 C1.89105452,230.659359 1.58696768,230.875575 1.26116035,230.853954 L0.522663739,230.81071 C0.218576899,230.789089 -0.0203484749,230.508008 0.00137201366,230.205305 L0.674707158,221.81612 Z"
                          id="Path"/>
                    <path d="M10.2534426,170.313439 C10.5575294,170.399926 10.7964548,170.702628 10.7747343,171.005331 L10.6444114,173.383708 C10.6226909,173.686411 10.8616163,174.010735 11.1657031,174.097222 L35.3406069,180.10803 C35.6446937,180.194516 35.9922215,180.021543 36.1225445,179.740462 L37.1216869,177.578301 C37.2520099,177.29722 37.5995377,177.124247 37.9036245,177.210734 L38.6204006,177.383707 C38.9244875,177.470193 39.1199719,177.772896 39.0330899,178.075598 L36.3180288,188.908026 C36.2311469,189.210728 35.9270601,189.383701 35.6446937,189.318837 L34.9279176,189.145864 C34.6238307,189.080999 34.3849054,188.756675 34.4066259,188.453972 L34.5369488,186.075595 C34.5586693,185.772892 34.3197439,185.448568 34.0156571,185.383703 L9.84075332,179.372895 C9.53666648,179.286408 9.18913866,179.459381 9.05881573,179.740462 L8.03795277,181.902624 C7.90762984,182.183704 7.56010202,182.356677 7.25601519,182.270191 L6.53923906,182.075596 C6.23515222,182.010732 6.06138832,181.708029 6.12654978,181.405326 L8.84161085,170.572899 C8.9284928,170.270196 9.23257964,170.097223 9.53666648,170.162088 L10.2534426,170.313439 Z"
                          id="Path"/>
                    <path d="M48.1339746,152.064799 C48.3511795,152.281015 48.4380615,152.691825 48.3077385,152.972906 L47.0045092,156.043175 C46.8741863,156.324256 46.5266585,156.540472 46.2225716,156.518851 L16.8781916,154.551284 C16.5741048,154.529662 16.1614155,154.724257 15.9876516,154.962095 L14.9016272,156.432364 C14.7061428,156.691824 14.3368944,156.799932 14.0545281,156.670202 L13.381193,156.389121 C13.0988266,156.281013 12.9685037,155.935067 13.0771061,155.653986 L17.0953965,146.248585 C17.2257194,145.967504 17.5515268,145.837774 17.8338931,145.945882 L18.5072282,146.226963 C18.7895946,146.335071 18.985079,146.702639 18.9199175,147.005341 L18.5723897,148.886422 C18.5289487,149.189124 18.7244331,149.448584 19.02852,149.491827 L42.59525,151.308042 L25.2840207,134.832374 C25.0668158,134.616158 24.7410085,134.659401 24.5455241,134.91886 L23.2422947,136.821562 C23.0685308,137.081021 22.6992825,137.189129 22.3951957,137.081021 L21.7218606,136.79994 C21.4394942,136.670211 21.3091713,136.345887 21.4177737,136.064806 L25.0450953,127.589134 C25.1754182,127.308053 25.5012256,127.178323 25.7835919,127.286431 L26.4569271,127.567512 C26.7392934,127.697242 26.9347778,128.043188 26.8696163,128.34589 L26.4134861,130.551295 C26.3483246,130.853997 26.4786475,131.286429 26.6958524,131.481024 L48.1339746,152.064799 Z"
                          id="Path"/>
                    <path d="M107.06166,71.9351038 C107.778436,71.7405093 108.495212,71.48105 109.255429,71.1134826 C110.015646,70.7675368 110.645541,70.3999694 111.123391,70.0540236 C112.817589,68.7999701 113.860173,67.4810517 114.272862,66.0540253 C114.685551,64.6269989 114.381465,63.2432157 113.382322,61.8810541 C112.795869,61.0810545 112.100813,60.5188926 111.318876,60.21619 C110.536938,59.9134874 109.71156,59.7621361 108.84274,59.7405145 C107.973921,59.7188929 107.06166,59.8053794 106.127679,59.9783523 C105.193698,60.1513252 104.259717,60.3026765 103.325736,60.4540277 C101.913904,60.6486223 100.654116,60.7999735 99.50293,60.9513248 C98.3517441,61.1026761 97.3091607,61.1242977 96.3751797,60.994568 C95.4194782,60.88646 94.5506586,60.605379 93.7470005,60.1513252 C92.9433425,59.6972713 92.1831254,58.9837581 91.4663492,58.0107856 C90.6844117,56.9513266 90.2065609,55.8270027 90.0545175,54.6810573 C89.9024741,53.5351118 90.032797,52.3675448 90.4237658,51.2215993 C90.8364551,50.0540323 91.5097902,48.9080868 92.4437712,47.783763 C93.3994727,46.6594392 94.5723791,45.5783585 95.9624904,44.5405212 C96.4837821,44.1513321 97.0702353,43.7621431 97.7435704,43.3945757 C98.3951851,43.0053867 99.0685202,42.6594409 99.7635759,42.3134951 C100.458631,41.9891709 101.131967,41.6648467 101.805302,41.3837658 C102.478637,41.1026848 103.108531,40.9080903 103.108531,40.9080903 C103.412618,40.8216039 103.716705,40.7999822 103.781866,40.8648471 C103.868748,40.9297119 104.042512,41.2107929 104.194556,41.4702522 L106.562089,45.5999802 C106.714132,45.8810611 106.62725,46.2486285 106.388325,46.4216014 L104.82445,47.5675469 C104.585524,47.7405198 104.172835,47.7405198 103.93391,47.5459253 L101.045085,45.1243047 C100.545513,45.1243047 99.9373398,45.275656 99.2422841,45.5351153 C98.5472285,45.7945747 97.8087319,46.2270069 97.0050738,46.832412 C95.5498011,47.9134927 94.6592611,49.0810597 94.2900128,50.3999781 C93.9424849,51.6972748 94.2031308,52.9513283 95.0719503,54.140517 C95.636683,54.8972734 96.2448567,55.4161921 96.8964714,55.7188947 C97.548086,55.9999756 98.2431417,56.1513269 98.9816383,56.1513269 C99.7201349,56.1513269 100.502072,56.0864621 101.28401,55.9134892 C102.087668,55.7405163 102.913047,55.589165 103.760146,55.4378137 C104.933052,55.2864624 106.149399,55.0918679 107.430908,54.8540302 C108.690697,54.6378141 109.928765,54.5513276 111.145112,54.5945708 C112.339739,54.6378141 113.469204,54.8972734 114.533508,55.3297056 C115.597812,55.7621379 116.488352,56.5405159 117.27029,57.6648398 C118.247712,59.1134878 118.790724,60.497271 118.921047,61.8161893 C119.05137,63.1351077 118.877606,64.3891612 118.378035,65.5999714 C117.900184,66.7891601 117.118246,67.9567272 116.053942,69.081051 C114.989638,70.2053748 113.72985,71.2864555 112.318018,72.3242928 C111.036509,73.2756438 109.689839,74.0756434 108.278007,74.767535 C106.866176,75.4594266 105.041655,76.1945614 105.041655,76.1945614 C104.759288,76.3026695 104.455201,76.3459127 104.39004,76.2810479 C104.324878,76.216183 104.129394,75.9351021 103.977351,75.6756427 L101.588097,71.5675364 C101.436053,71.2864555 101.501215,70.9188881 101.761861,70.7459152 L103.325736,69.5999697 C103.564661,69.4053752 103.977351,69.4269968 104.216276,69.6215913 L107.06166,71.9351038 Z"
                          id="Path"/>
                    <path d="M129.390322,26.205394 C129.542366,26.486475 129.455484,26.8540424 129.216558,27.0702585 L127.348596,28.5621497 C127.109671,28.7567442 127.022789,29.1459333 127.174832,29.4053926 L138.969058,51.2648426 C139.121101,51.5459235 139.490349,51.6756532 139.772716,51.5891667 L142.053367,50.8756535 C142.357454,50.7891671 142.704982,50.9188968 142.857025,51.1999777 L143.204553,51.8486261 C143.356596,52.129707 143.247994,52.4540312 142.965628,52.6053825 L133.082805,57.8810559 C132.800439,58.0324072 132.474632,57.9242991 132.322588,57.6432182 L131.97506,56.9945698 C131.823017,56.7351104 131.909899,56.3459214 132.148824,56.1513269 L133.995066,54.6378141 C134.233991,54.4432195 134.320873,54.0756521 134.16883,53.7945712 L122.374604,31.9567428 C122.222561,31.6756619 121.875033,31.5243106 121.570946,31.6324187 L119.290295,32.3459319 C118.986208,32.4324183 118.63868,32.281067 118.486637,32.0216077 L118.139109,31.3729593 C117.987066,31.0918784 118.095668,30.7459326 118.378035,30.6162029 L128.260857,25.3189079 C128.543223,25.1675566 128.890751,25.2756647 129.021074,25.5567456 L129.390322,26.205394 Z"
                          id="Path"/>
                    <path d="M141.662398,19.070262 C141.72756,18.8972891 142.031647,18.6594513 142.314013,18.5513433 L165.359451,10.205401 C165.663538,10.0972929 166.011066,10.0540497 166.163109,10.0972929 C166.315153,10.1405361 166.532358,10.4216171 166.64096,10.702698 L168.617525,15.610804 C168.726127,15.891885 168.595804,16.2162092 168.291717,16.3243172 L166.445476,16.9945872 C166.141389,17.1026953 165.772141,16.9729656 165.598377,16.7135062 L163.96934,14.3135073 C163.795576,14.0540479 163.404607,13.9243183 163.122241,14.0108047 L160.711267,14.7243179 C160.40718,14.8108044 159.929329,14.9621556 159.646963,15.0702637 L157.30115,15.9135066 L165.945904,39.6324152 C166.054507,39.9134961 166.402035,40.1297123 166.706122,40.0648474 L169.073655,39.69728 C169.377742,39.6540368 169.725269,39.8486313 169.833872,40.1297123 L170.094518,40.8216039 C170.20312,41.1243064 170.051077,41.427009 169.74699,41.5351171 L159.212553,45.3405208 C158.908466,45.4486289 158.582659,45.2972776 158.495777,44.994575 L158.235131,44.3026834 C158.126529,44.0216025 158.256851,43.6540351 158.517497,43.5026838 L160.580944,42.2702519 C160.84159,42.1189006 160.971913,41.7513332 160.86331,41.4486306 L152.196835,17.729722 L149.851022,18.5945865 C149.546936,18.7026946 149.090805,18.8972891 148.786718,19.0053971 L146.484347,19.9999913 C146.20198,20.129721 145.984775,20.4756668 146.028216,20.7783693 L146.332303,23.6540438 C146.375744,23.9567463 146.158539,24.3026921 145.854453,24.4108002 L144.008211,25.0810702 C143.704124,25.1891782 143.400037,25.0378269 143.291435,24.7351244 L141.705839,19.8702616 C141.618957,19.6540455 141.597237,19.2648565 141.662398,19.070262 Z"
                          id="Path"/>
                    <path d="M198.092227,22.3135038 L187.796716,24.2594489 L186.21112,33.6432286 C186.167679,33.9459312 186.363164,34.2053905 186.688971,34.2053905 L188.817579,34.2486337 C189.121666,34.2486337 189.425753,34.5080931 189.490914,34.8107957 L189.621237,35.5243089 C189.664678,35.8270114 189.469194,36.129714 189.165107,36.1729572 L180.151104,37.859443 C179.847017,37.9026862 179.54293,37.7080917 179.499489,37.4053891 L179.369166,36.6918759 C179.304005,36.3891734 179.499489,36.0432276 179.781856,35.9134979 L181.628097,35.1351198 C181.910464,35.0053902 182.19283,34.6594444 182.257991,34.3567418 L187.948759,4.86486275 C188.013921,4.56216018 188.318008,4.25945761 188.600374,4.19459277 L192.553503,3.45945795 C192.85759,3.41621473 193.226838,3.56756601 193.378881,3.84864697 L208.040211,29.4918791 C208.192255,29.7513384 208.583223,29.9891761 208.88731,29.9891761 L210.842154,30.054041 C211.167962,30.054041 211.450328,30.3135003 211.515489,30.6162029 L211.645812,31.3297161 C211.710974,31.6324187 211.493769,31.9351212 211.189682,31.9783645 L200.87245,33.9243096 C200.568363,33.9675528 200.264276,33.7729583 200.199115,33.4702557 L200.068792,32.7567425 C200.00363,32.4540399 200.199115,32.1080941 200.481481,31.9783645 L202.327723,31.1999864 C202.610089,31.0918784 202.718692,30.7675542 202.588369,30.4864732 L198.092227,22.3135038 Z M190.598659,8.82161778 L188.231126,21.8594499 L196.919321,20.237829 L190.598659,8.82161778 Z"
                          id="Shape"/>
                    <path d="M226.611229,28.6270146 C227.284564,28.8864739 228.044781,29.10269 228.87016,29.2540413 C229.695538,29.4053926 230.412314,29.4918791 230.998768,29.4918791 C233.105655,29.4918791 234.734692,29.0378252 235.929319,28.1297175 C237.102225,27.2216098 237.688678,25.9459347 237.688678,24.2594489 C237.688678,23.2648547 237.449753,22.3999903 237.015343,21.7080987 C236.559213,20.9945855 235.99448,20.3891803 235.299424,19.84864 C234.604369,19.3080997 233.822431,18.8540458 232.953612,18.4432352 C232.106513,18.0324246 231.237693,17.5999923 230.412314,17.1675601 C229.174247,16.4972901 228.044781,15.891885 227.023918,15.3297231 C226.024776,14.7675611 225.155956,14.1837776 224.460901,13.5351292 C223.765845,12.8864809 223.222833,12.1513461 222.853584,11.3081032 C222.484336,10.4648603 222.288852,9.44864454 222.288852,8.23783425 C222.288852,6.91891591 222.571218,5.72972724 223.11423,4.71351146 C223.678963,3.69729569 224.460901,2.8324312 225.481764,2.14053961 C226.502626,1.44864802 227.718974,0.908107713 229.152526,0.562161917 C230.586078,0.19459451 232.171674,0.0216216122 233.931034,0 C234.582648,0 235.277704,0.0432432244 236.037921,0.129729673 C236.798138,0.216216122 237.558355,0.324324183 238.296852,0.454053856 C239.057069,0.58378353 239.795565,0.735134815 240.490621,0.908107713 C241.207397,1.08108061 241.815571,1.29729673 241.815571,1.29729673 C242.097937,1.40540479 242.380304,1.55675608 242.402024,1.64324253 C242.423745,1.75135059 242.423745,2.07567477 242.380304,2.37837734 L241.815571,7.09188881 C241.77213,7.39459138 241.489764,7.65405072 241.185677,7.65405072 L239.252553,7.65405072 C238.948466,7.65405072 238.622659,7.41621299 238.557498,7.11351042 L237.645237,3.45945795 C237.232548,3.15675538 236.667815,2.91891765 235.951039,2.74594475 C235.234263,2.55135024 234.387164,2.46486379 233.366301,2.46486379 C231.5635,2.46486379 230.129948,2.89729604 229.065644,3.74053891 C228.00134,4.58378179 227.480048,5.75134885 227.480048,7.22161848 C227.480048,8.17296942 227.675533,8.95134746 228.023061,9.5567526 C228.370588,10.1621577 228.848439,10.702698 229.456613,11.1351303 C230.043066,11.5675625 230.716401,11.9567516 231.454898,12.3026973 C232.193394,12.6486431 232.953612,12.9945889 233.735549,13.383778 C234.778133,13.9459399 235.864157,14.5081018 237.037063,15.0702637 C238.188249,15.6324256 239.230833,16.3026956 240.164814,17.0378304 C241.098795,17.7945868 241.859012,18.6378297 242.467186,19.6108023 C243.053639,20.5837748 243.336005,21.7513419 243.270844,23.0918818 C243.183962,24.8432324 242.814713,26.2702588 242.141378,27.4162043 C241.468043,28.5621497 240.577503,29.4702574 239.469758,30.1405274 C238.362013,30.832419 237.037063,31.3080945 235.516629,31.5675538 C233.996195,31.8486348 232.345438,31.9783645 230.564358,31.9783645 C228.957042,31.9783645 227.393167,31.8486348 225.851012,31.5891754 C224.308857,31.3080945 222.397454,30.832419 222.397454,30.832419 C222.093367,30.7459326 221.832721,30.6162029 221.832721,30.5080948 C221.811001,30.4216084 221.832721,30.0756626 221.876162,29.77296 L222.397454,25.0594486 C222.440895,24.756746 222.723261,24.4972866 223.027348,24.4972866 L224.960472,24.4972866 C225.264559,24.4972866 225.590366,24.7351244 225.655527,25.0378269 L226.611229,28.6270146 Z"
                          id="Path"/>
                    <path d="M307.107359,41.1675496 C303.718963,42.9837651 299.722393,43.1351164 295.095929,41.6432251 C292.858719,40.9297119 290.990757,39.9567394 289.448602,38.7459291 C287.906448,37.5351188 286.755262,36.1080924 285.951604,34.4648499 C285.147946,32.8216073 284.735256,30.9621487 284.713536,28.8864739 C284.691815,26.8107991 285.082784,24.5621515 285.864722,22.1189093 C286.6901,19.5675591 287.754404,17.4270194 289.079354,15.7189121 C290.382583,14.0108047 291.881297,12.713508 293.553775,11.8054003 C295.226252,10.9189142 297.072494,10.4216171 299.070779,10.3567522 C301.069064,10.2702658 303.175951,10.59459 305.36972,11.2864816 C307.56349,11.9999948 309.431452,12.9513457 310.995327,14.162156 C312.537482,15.3729663 313.732108,16.8216143 314.535767,18.4864784 C315.339425,20.1513426 315.773834,22.0324228 315.795555,24.1297192 C315.838996,26.205394 315.448027,28.4972849 314.644369,30.9621487 C312.993612,35.9783627 310.495756,39.3729558 307.107359,41.1675496 Z M309.887582,18.8972891 C309.062203,16.3026956 307.259403,14.5729666 304.47918,13.6648589 C301.655517,12.7567512 299.157661,13.0810754 296.963891,14.6378315 C294.791842,16.1945875 292.967321,19.1567484 291.55549,23.5459357 C290.100217,27.9783662 289.79613,31.4810674 290.599788,34.0756608 C291.403446,36.6702543 293.227967,38.3999833 296.02991,39.308091 C298.853574,40.2161987 301.35143,39.8918745 303.545199,38.3351184 C305.738969,36.7783624 307.541769,33.8162015 308.953601,29.4270142 C310.408874,24.9945837 310.712961,21.4918825 309.887582,18.8972891 Z"
                          id="Shape"/>
                    <path d="M325.35257,50.2702484 C325.830421,50.8324103 326.373433,51.3729506 327.025047,51.9134909 C327.676662,52.4540312 328.263115,52.8648419 328.784407,53.1459228 C330.630649,54.140517 332.281406,54.529706 333.758399,54.2918683 C335.235392,54.0756521 336.364858,53.2107877 337.168516,51.740518 C337.646366,50.8540319 337.863571,50.010789 337.82013,49.1675462 C337.776689,48.3459249 337.559484,47.5243036 337.211957,46.724304 C336.842708,45.9243043 336.408298,45.1459263 335.843566,44.3891699 C335.278833,43.6107918 334.757541,42.8540354 334.23625,42.0540357 C333.476033,40.8648471 332.780977,39.7837665 332.172803,38.8107939 C331.56463,37.8378214 331.108499,36.908092 330.804412,35.9999843 C330.500326,35.0918766 330.391723,34.2053905 330.478605,33.2756612 C330.565487,32.3675535 330.891294,31.3729593 331.456027,30.3135003 C332.085921,29.1459333 332.9113,28.2378255 333.888722,27.6324204 C334.866144,27.0053937 335.973889,26.6162046 337.211957,26.5080966 C338.450024,26.3783669 339.774974,26.5080966 341.208526,26.875664 C342.642079,27.2432314 344.119072,27.8486365 345.661227,28.6702578 C346.225959,28.9729604 346.834133,29.3405278 347.442307,29.7945816 C348.072201,30.2270139 348.680375,30.6810677 349.266828,31.1567432 C349.875001,31.6324187 350.439734,32.1297157 350.982746,32.6053912 C351.525758,33.1026883 351.960168,33.5783638 351.960168,33.5783638 C352.177373,33.8162015 352.329417,34.0756608 352.285976,34.1621473 C352.264255,34.2486337 352.090491,34.5513363 351.916727,34.789174 L349.158225,38.6594426 C348.984461,38.918902 348.593493,39.0053884 348.332847,38.8540371 L346.638649,37.9243078 C346.356282,37.7729565 346.204239,37.4053891 346.291121,37.1026866 L347.268543,33.4702557 C347.051338,33.0162018 346.660369,32.5405264 346.139077,32.0216077 C345.596065,31.5243106 344.901009,31.0270135 344.010469,30.5513381 C342.424874,29.7080952 340.969601,29.383771 339.622931,29.6216087 C338.27626,29.8594465 337.255398,30.6162029 336.560342,31.9134996 C336.104212,32.7351209 335.887007,33.5134989 335.908727,34.2270121 C335.930448,34.9405253 336.082491,35.6324169 336.386578,36.3026869 C336.690665,36.9729569 337.103354,37.6216052 337.581205,38.2918752 C338.080776,38.9405236 338.558627,39.6107936 339.058198,40.3243068 C339.688092,41.2972793 340.383148,42.3351167 341.121644,43.3729541 C341.860141,44.4324131 342.468315,45.5134937 342.924445,46.6161959 C343.380575,47.7188981 343.641221,48.843222 343.684662,49.9675458 C343.728103,51.1134913 343.402296,52.2594367 342.70724,53.4270038 C341.79498,54.918895 340.774117,55.9999756 339.622931,56.6702456 C338.471745,57.3405156 337.255398,57.708083 335.952168,57.7729478 C334.648939,57.8378127 333.258828,57.6215965 331.803555,57.1459211 C330.348282,56.648624 328.827848,55.9999756 327.263973,55.1567327 C325.852141,54.3999763 324.548912,53.5351118 323.332564,52.5621393 C322.116217,51.5891667 320.660944,50.2486268 320.660944,50.2486268 C320.422019,50.0324107 320.269975,49.7945729 320.313416,49.6864649 C320.356857,49.5999784 320.530621,49.3188975 320.704385,49.0594381 L323.441167,45.1675479 C323.614931,44.9297102 323.984179,44.8432237 324.266545,44.9729534 L325.960743,45.8810611 C326.24311,46.0324124 326.395153,46.3999798 326.308271,46.7026824 L325.35257,50.2702484 Z"
                          id="Path"/>
                    <path d="M357.716098,70.5945639 C357.520613,70.8324016 357.564054,71.199969 357.80298,71.3945635 L361.625786,74.378346 C361.864711,74.5729405 362.2774,74.8756431 362.538046,75.048616 L364.579772,76.4540208 C364.840418,76.6269937 365.253107,76.6053721 365.492033,76.4107776 L367.989889,74.3999676 C368.228814,74.2053731 368.641503,74.2053731 368.880429,74.3999676 L370.444304,75.6107779 C370.683229,75.8053724 370.72667,76.1513182 370.531186,76.3891559 L367.229672,80.3026678 C367.034187,80.5405055 366.773541,80.8215864 366.664939,80.9080729 C366.556337,81.016181 366.25225,80.9296945 366.013324,80.7351 L349.440592,67.8053759 C349.201666,67.6107814 349.158225,67.2648356 349.35371,67.0053762 L349.80984,66.4432143 C350.005324,66.2053766 350.396293,66.1188901 350.656939,66.2486198 L352.785547,67.3297004 C353.067913,67.4810517 353.437161,67.3945653 353.632646,67.1351059 L369.010752,47.6324117 C369.206236,47.394574 369.184516,47.0053849 368.989031,46.7675472 L367.425156,44.9729534 C367.229672,44.7351157 367.207951,44.3459266 367.403436,44.1080889 L367.859566,43.545927 C368.05505,43.3080893 368.402578,43.2432244 368.663224,43.4378189 L377.460022,50.29187 C377.698947,50.4864645 377.742388,50.8324103 377.568624,51.0918697 L377.112494,51.6756532 C376.91701,51.9134909 376.547761,51.9999774 376.265395,51.8702477 L374.136787,50.7891671 C373.854421,50.6378158 373.463452,50.7243022 373.289688,50.9837616 L357.716098,70.5945639 Z"
                          id="Path"/>
                    <path d="M394.510605,105.340495 C390.666079,105.167522 387.14736,103.286442 383.932727,99.6540107 C382.390573,97.9026601 381.261107,96.1296879 380.566052,94.3134725 C379.870996,92.497257 379.58863,90.6810416 379.740673,88.8432046 C379.892717,87.0053675 380.50089,85.2107737 381.521753,83.4161799 C382.564337,81.6215861 384.04133,79.8702355 385.974453,78.1837498 C387.994459,76.4107776 390.014464,75.1134808 392.012749,74.2918596 C394.011034,73.4702383 395.965878,73.1026709 397.855561,73.1891573 C399.745243,73.2756438 401.569764,73.7945625 403.350844,74.7459134 C405.110204,75.6972643 406.760961,77.0161827 408.281395,78.7459117 C409.801829,80.4756406 410.931295,82.2486128 411.648071,84.0648283 C412.364847,85.9026653 412.625493,87.7405024 412.473449,89.5783394 C412.321406,91.437798 411.713232,93.2540135 410.670649,95.0702289 C409.628065,96.8864443 408.129352,98.6377949 406.174508,100.367524 C402.243099,103.848603 398.333411,105.491846 394.510605,105.340495 Z M408.303116,87.5891511 C408.93301,84.9513144 408.259675,82.5296938 406.326551,80.345911 C404.371707,78.1405065 402.047615,77.1459124 399.375995,77.3837501 C396.704375,77.6215878 393.620065,79.2648304 390.166508,82.2918561 C386.647788,85.3837466 384.584342,88.2377994 383.954448,90.8756361 C383.324554,93.5134728 383.976168,95.9350934 385.952733,98.1404978 C387.907577,100.345902 390.231669,101.340496 392.903289,101.102659 C395.574909,100.864821 398.659219,99.2432 402.112776,96.1945527 C405.631495,93.0810406 407.694942,90.2269878 408.303116,87.5891511 Z"
                          id="Shape"/>
                    <path d="M421.031322,124.778324 C421.270247,124.58373 421.335409,124.194541 421.183365,123.935081 L417.81669,118.226976 L406.71752,124.886432 L410.344841,130.962105 C410.496885,131.221565 410.779251,131.653997 410.953015,131.913456 L412.343126,133.945888 C412.51689,134.205347 412.907859,134.335077 413.190225,134.24859 L416.231094,133.253996 C416.51346,133.16751 416.904429,133.297239 417.056472,133.556699 L418.099056,135.286428 C418.251099,135.545887 418.164217,135.891833 417.881851,136.043184 L413.38571,138.508048 C413.103344,138.659399 412.777536,138.81075 412.647213,138.875615 C412.51689,138.918858 412.256244,138.745886 412.104201,138.486426 L400.440299,118.940489 C400.288255,118.681029 400.375137,118.335084 400.635783,118.162111 L401.265677,117.794543 C401.526323,117.643192 401.917292,117.686435 402.134497,117.924273 L403.720092,119.718867 C403.915577,119.956705 404.306546,119.999948 404.588912,119.848596 L426.005314,107.178332 C426.26596,107.02698 426.396282,106.659413 426.309401,106.35671 L425.505742,104.108063 C425.39714,103.80536 425.527463,103.459414 425.809829,103.286442 L426.439723,102.918874 C426.700369,102.767523 427.047897,102.854009 427.221661,103.113469 L438.342551,121.751298 C438.494595,122.010758 438.624918,122.356703 438.603197,122.529676 C438.581477,122.681028 438.364272,122.962109 438.103626,123.135082 L433.629205,125.989134 C433.368559,126.162107 433.021031,126.075621 432.868988,125.816161 L431.848125,124.129676 C431.696082,123.870216 431.739523,123.481027 431.978448,123.264811 L434.411143,120.994542 C434.628348,120.778326 434.71523,120.389137 434.563186,120.108056 L433.412,117.88103 C433.281677,117.599949 433.021031,117.167517 432.868988,116.908057 L429.589194,111.394546 L419.771533,117.232381 L423.15993,122.918865 C423.311973,123.178325 423.681221,123.308054 423.985308,123.199946 L426.222519,122.356703 C426.504885,122.248595 426.874133,122.378325 427.047897,122.659406 L427.894996,124.086432 C428.04704,124.367513 427.960158,124.691838 427.699512,124.864811 L420.466589,129.14589 C420.205943,129.297241 419.858415,129.210755 419.684652,128.951295 L418.837552,127.524269 C418.685509,127.264809 418.750671,126.87562 418.989596,126.681026 L421.031322,124.778324 Z"
                          id="Path"/>
                    <path d="M54.0419475,111.567519 C53.7595811,111.437789 53.3903328,111.567519 53.2165689,111.826978 L49.5675269,117.362111 L60.4712121,124.345892 L64.3591795,118.42157 C64.5329435,118.162111 64.7935893,117.729678 64.9456327,117.448598 L66.1619801,115.308058 C66.3140235,115.026977 66.2705825,114.637788 66.0533777,114.421572 L63.8161673,112.151303 C63.5989625,111.935086 63.5555215,111.545897 63.7292854,111.286438 L64.8370303,109.599952 C65.0107942,109.340493 65.358322,109.275628 65.6189679,109.448601 L69.8327427,112.38914 C70.0933885,112.562113 70.3757549,112.799951 70.4843573,112.886437 C70.5929598,112.994545 70.5495188,113.275626 70.3757549,113.535086 L57.9081945,132.583726 C57.7344305,132.843185 57.3869027,132.90805 57.1262569,132.735077 L56.5180832,132.345888 C56.2574373,132.172915 56.1488349,131.805348 56.2574373,131.524267 L57.1696978,129.318863 C57.2783003,129.037782 57.1696978,128.670214 56.909052,128.497241 L36.0356625,114.962112 C35.7750166,114.789139 35.3840478,114.832382 35.166843,115.07022 L33.4943653,116.778328 C33.2771605,116.994544 32.8861917,117.037787 32.6255458,116.864814 L32.0173721,116.475625 C31.7567263,116.302652 31.6915648,115.956706 31.8436082,115.697247 L43.7464359,97.5350927 C43.9201998,97.2756333 44.1808457,97.016174 44.3328891,96.9513092 C44.4849325,96.8864443 44.8324604,96.9729308 45.0931062,97.1459037 L49.6544088,99.8918484 C49.9150547,100.0432 50.0019366,100.389145 49.8281727,100.648605 L48.7421483,102.291847 C48.5683844,102.551307 48.1991361,102.681036 47.8950492,102.572928 L44.7672989,101.426983 C44.4849325,101.318875 44.0939637,101.426983 43.8984793,101.686442 L42.3997656,103.697252 C42.2042812,103.956712 41.9219149,104.367522 41.748151,104.626981 L38.2077114,109.989141 L47.8081673,116.194544 L51.4354889,110.659411 C51.6092528,110.399952 51.5658118,110.010763 51.3268864,109.816168 L49.5892473,108.172926 C49.3720425,107.95671 49.3286015,107.567521 49.4806449,107.308061 L50.3929054,105.924278 C50.5666693,105.664819 50.9141971,105.578332 51.174843,105.751305 L58.2340018,110.335087 C58.4946476,110.50806 58.5815296,110.854006 58.4077657,111.113465 L57.4955052,112.51887 C57.3217413,112.778329 56.952493,112.886437 56.6701266,112.756708 L54.0419475,111.567519 Z"
                          id="Path"/>
                    <path d="M450.896994,149.145881 C451.005596,149.426962 450.940435,149.881016 450.74495,150.140475 L434.845553,172.06479 L453.351409,165.643171 C453.633775,165.535063 453.85098,165.210739 453.807539,164.908036 L453.460011,162.551281 C453.41657,162.248578 453.612055,161.902632 453.916141,161.816146 L454.611197,161.578308 C454.915284,161.4702 455.241091,161.643173 455.327973,161.924254 L458.477444,170.962088 C458.586046,171.26479 458.412283,171.589115 458.129916,171.675601 L457.434861,171.913439 C457.152494,172.021547 456.783246,171.891817 456.609482,171.610736 L455.393135,169.491818 C455.241091,169.232359 454.871843,169.081007 454.567756,169.189116 L428.372847,178.205328 C428.06876,178.313436 427.764673,178.140463 427.656071,177.859382 L426.765531,175.28641 C426.656928,174.983708 426.72209,174.551275 426.917574,174.291816 L445.358269,149.189124 L423.833265,156.605337 C423.529178,156.713445 423.333694,157.037769 423.377135,157.340472 L423.724662,159.697228 C423.768103,159.99993 423.572619,160.345876 423.268532,160.432363 L422.573477,160.6702 C422.26939,160.778308 421.943582,160.626957 421.8567,160.324255 L418.70723,151.286421 C418.598627,151.00534 418.750671,150.659394 419.054757,150.572907 L419.749813,150.33507 C420.032179,150.226962 420.401428,150.356691 420.553471,150.637772 L421.769818,152.735069 C421.921862,152.994528 422.29111,153.145879 422.595197,153.037771 L446.140207,144.929667 C446.444293,144.821559 446.639778,144.497234 446.596337,144.194532 L446.248809,141.794533 C446.205368,141.49183 446.400852,141.145885 446.704939,141.059398 L447.399995,140.82156 C447.704082,140.735074 448.008169,140.886425 448.116771,141.167506 L450.896994,149.145881 Z"
                          id="Path"/>
                    <path d="M434.563186,196.562077 C434.389422,197.253968 434.30254,198.032346 434.259099,198.875589 C434.215658,199.718832 434.237379,200.432345 434.324261,201.016129 C434.628348,203.070182 435.301683,204.626938 436.365987,205.664775 C437.430291,206.702613 438.798681,207.113423 440.471159,206.875586 C441.470302,206.724234 442.27396,206.39991 442.925574,205.837748 C443.555468,205.297208 444.098481,204.64856 444.53289,203.891803 C444.9673,203.135047 445.314828,202.291804 445.597194,201.383696 C445.879561,200.475588 446.183648,199.589102 446.509455,198.702616 C447.009026,197.383698 447.465156,196.172888 447.877846,195.113429 C448.290535,194.032348 448.768386,193.12424 449.311398,192.324241 C449.85441,191.545863 450.527745,190.918836 451.309683,190.44316 C452.09162,189.967485 453.090763,189.643161 454.28539,189.470188 C455.61034,189.275593 456.804966,189.383701 457.890991,189.794512 C458.977015,190.205323 459.954437,190.853971 460.779816,191.762079 C461.605194,192.670186 462.30025,193.79451 462.864983,195.178293 C463.429715,196.540455 463.820684,198.097211 464.08133,199.805318 C464.168212,200.453967 464.233374,201.145858 464.255094,201.880993 C464.276814,202.63775 464.276814,203.394506 464.255094,204.151262 C464.233374,204.908019 464.168212,205.664775 464.103051,206.378289 C464.016169,207.113423 463.907566,207.74045 463.907566,207.74045 C463.842405,208.043153 463.733802,208.324234 463.6252,208.367477 C463.538318,208.41072 463.19079,208.453963 462.886703,208.453963 L458.108196,208.562071 C457.804109,208.562071 457.500022,208.324234 457.456581,208.021531 L457.174215,206.118829 C457.130774,205.816127 457.326258,205.470181 457.630345,205.340451 L461.127344,203.956668 C461.366269,203.502614 461.518312,202.918831 461.605194,202.205317 C461.692076,201.470183 461.670356,200.62694 461.518312,199.610724 C461.257667,197.837752 460.649493,196.47559 459.65035,195.545861 C458.651208,194.616132 457.434861,194.270186 455.979588,194.46478 C455.045607,194.59451 454.28539,194.875591 453.720657,195.329645 C453.155924,195.762077 452.699794,196.302617 452.330546,196.951266 C451.983018,197.599914 451.678931,198.313427 451.440006,199.091805 C451.20108,199.870183 450.962155,200.670183 450.679789,201.470183 C450.267099,202.572885 449.85441,203.740452 449.463441,204.951262 C449.050752,206.162072 448.551181,207.286396 447.921287,208.324234 C447.313113,209.340449 446.552896,210.226936 445.684076,210.940449 C444.793536,211.653962 443.685791,212.086394 442.317401,212.216124 C440.579762,212.389097 439.081048,212.216124 437.8647,211.697205 C436.648353,211.178286 435.60577,210.443152 434.780391,209.448557 C433.955012,208.453963 433.281677,207.221531 432.803827,205.751262 C432.325976,204.302614 431.956728,202.680993 431.696082,200.929642 C431.478877,199.351265 431.391995,197.794509 431.435436,196.237752 C431.500597,194.680996 431.717802,192.735051 431.717802,192.735051 C431.761243,192.432349 431.848125,192.151268 431.956728,192.129646 C432.04361,192.108024 432.391137,192.086403 432.695224,192.064781 L437.473732,191.935052 C437.777818,191.91343 438.081905,192.172889 438.125346,192.475592 L438.407713,194.378294 C438.451154,194.680996 438.255669,195.026942 437.973303,195.156672 L434.563186,196.562077 Z"
                          id="Path"/>
                    <path d="M464.450578,238.335031 C464.146492,238.335031 463.842405,238.097194 463.777243,237.794491 L463.299393,235.459357 C463.234231,235.156654 462.930144,234.918817 462.626057,234.918817 L437.712657,235.026925 C437.38685,235.026925 437.104483,235.286384 437.039322,235.589087 L436.604912,237.924221 C436.539751,238.226923 436.257384,238.486383 435.931577,238.486383 L435.19308,238.486383 C434.888994,238.486383 434.628348,238.226923 434.628348,237.924221 L434.584907,226.767469 C434.584907,226.464766 434.845553,226.205307 435.149639,226.205307 L435.888136,226.205307 C436.192223,226.205307 436.49631,226.443145 436.561471,226.745847 L437.017601,229.080981 C437.082763,229.383684 437.38685,229.621522 437.690937,229.621522 L462.604337,229.513414 C462.908424,229.513414 463.212511,229.253954 463.277672,228.951252 L463.712082,226.616118 C463.777243,226.313415 464.08133,226.053956 464.385417,226.053956 L465.123914,226.053956 C465.449721,226.053956 465.688646,226.313415 465.688646,226.616118 L465.732087,237.772869 C465.732087,238.075572 465.471441,238.335031 465.167355,238.335031 L464.450578,238.335031 Z"
                          id="Path"/>
                    <path d="M435.953297,257.23232 C435.584049,257.859347 435.258242,258.57286 434.975875,259.351238 C434.693509,260.129617 434.498025,260.821508 434.411143,261.405292 C434.085335,263.459345 434.28082,265.145831 434.997596,266.464749 C435.692652,267.762046 436.887278,268.540424 438.559756,268.799883 C439.558899,268.951234 440.449439,268.864748 441.209656,268.540424 C441.969873,268.216099 442.686649,267.740424 443.316543,267.15664 C443.946437,266.551235 444.53289,265.859344 445.075903,265.080966 C445.618915,264.302588 446.161927,263.545831 446.74838,262.789075 C447.6172,261.686373 448.399137,260.670157 449.115913,259.762049 C449.83269,258.853941 450.549466,258.118807 451.309683,257.535023 C452.0699,256.95124 452.873558,256.540429 453.785819,256.302591 C454.676359,256.064753 455.718942,256.043132 456.913569,256.237728 C458.238519,256.432321 459.346264,256.907996 460.280245,257.599888 C461.214226,258.313401 461.931002,259.221509 462.452293,260.345833 C462.973585,261.448535 463.321113,262.745832 463.429715,264.216101 C463.560038,265.686371 463.494877,267.28637 463.212511,268.994478 C463.125629,269.643126 462.951865,270.313396 462.75638,271.048531 C462.560896,271.783665 462.321971,272.497179 462.083045,273.210692 C461.84412,273.945827 461.561753,274.616097 461.279387,275.307988 C460.997021,275.978258 460.692934,276.54042 460.692934,276.54042 C460.54089,276.821501 460.345406,277.037717 460.236804,277.059339 C460.128201,277.059339 459.802394,276.994474 459.498307,276.929609 L454.893563,275.632312 C454.589477,275.545826 454.393992,275.221502 454.437433,274.918799 L454.74152,273.016097 C454.784961,272.713395 455.089048,272.453935 455.393135,272.410692 L459.150779,272.10799 C459.498307,271.740422 459.824114,271.221504 460.128201,270.572855 C460.432288,269.902585 460.649493,269.080964 460.823257,268.08637 C461.105623,266.313398 460.910139,264.843128 460.236804,263.653939 C459.563468,262.486372 458.499165,261.772859 457.043892,261.556643 C456.109911,261.405292 455.306253,261.470156 454.632918,261.707994 C453.959582,261.967454 453.351409,262.335021 452.830117,262.85394 C452.308825,263.372858 451.809254,263.956642 451.353124,264.626912 C450.896994,265.297182 450.419143,265.989073 449.919572,266.680965 C449.202795,267.610694 448.464299,268.605288 447.725802,269.643126 C446.965585,270.680963 446.161927,271.610693 445.271387,272.410692 C444.380847,273.210692 443.403425,273.816097 442.339121,274.248529 C441.296538,274.680962 440.08019,274.767448 438.75524,274.486367 C437.039322,274.1188 435.670931,273.535016 434.650068,272.691773 C433.629205,271.84853 432.868988,270.810693 432.369417,269.621504 C431.869846,268.432316 431.6092,267.048532 431.587479,265.513398 C431.565759,263.978263 431.696082,262.335021 431.956728,260.58367 C432.195653,259.005293 432.586622,257.49178 433.107913,256.02151 C433.629205,254.551241 434.411143,252.756647 434.411143,252.756647 C434.541466,252.475566 434.71523,252.237728 434.823832,252.237728 C434.910714,252.237728 435.258242,252.302593 435.540608,252.389079 L440.145352,253.643133 C440.449439,253.729619 440.644923,254.032322 440.601482,254.356646 L440.297395,256.259348 C440.253954,256.56205 439.949867,256.843131 439.64578,256.864753 L435.953297,257.23232 Z"
                          id="Path"/>
                </g>
                <g id="Group" transform="translate(88.785047, 394.080997)">
                    <path d="M27.218089,41.8708619 C27.5006193,42.0005823 27.870082,41.892482 28.0439468,41.6330414 L40.8664761,23.2992369 L16.9817986,36.7685296 C16.6992683,36.9198699 16.2863393,36.8766298 16.0472752,36.6820494 L15.0910188,35.9037275 C14.8519547,35.709147 14.7215561,35.298366 14.7867554,34.9956853 L21.6978814,9.33268298 L7.20190328,25.0504611 C6.98457227,25.2666617 6.94110607,25.6558226 7.13670398,25.8936432 L8.59282172,27.8610679 C8.78841962,28.1205086 8.76668652,28.5096695 8.54935552,28.72587 L8.0494942,29.2447513 C7.8321632,29.4609518 7.48443359,29.4825719 7.24536948,29.2663714 L0.182111777,22.7154955 C-0.0569523297,22.4992949 -0.0569523297,22.1533741 0.160378677,21.9155535 L0.660239991,21.3750522 C0.877570997,21.1588517 1.26876681,21.0939915 1.52956402,21.2669519 L3.57247547,22.542535 C3.83327268,22.6938754 4.22446849,22.6506353 4.4417995,22.4344348 L20.8502905,4.31683081 C21.0676215,4.07901023 21.0676215,3.71146934 20.8502905,3.47364877 L19.3072403,1.63594431 C19.1116424,1.39812373 19.1116424,1.00896278 19.3072403,0.771142207 L19.7636354,0.209020843 C19.9592333,-0.0287997346 20.3286961,-0.0720398395 20.5677602,0.122540633 L27.9570144,6.08967511 C28.1960785,6.28425559 28.3264771,6.69503658 28.2612778,6.99771732 L22.3716075,29.5906721 L42.6051242,18.6293055 C42.8876545,18.4779652 43.3005834,18.5212053 43.5396475,18.7157858 L50.6246383,24.4450997 C50.8637024,24.6396801 50.9071686,24.985601 50.7115707,25.2234215 L50.2551756,25.7855429 C50.0595777,26.0233635 49.6683819,26.1098437 49.4075847,25.9585033 L47.2777408,24.8126406 C46.9952105,24.6613002 46.6257478,24.7477804 46.4301499,24.985601 L32.4340331,44.767949 C32.2601683,45.0273896 32.2819014,45.4165506 32.4992324,45.6543711 L34.1509481,47.4055954 C34.3682791,47.6217959 34.3900122,48.0109568 34.1944143,48.2703975 L33.7597522,48.8541389 C33.5641543,49.1135795 33.2164247,49.1568196 32.9773606,48.9838592 L23.8711915,42.3465031 C23.6321273,42.1735427 23.566928,41.8060018 23.7407929,41.5681812 L24.1754549,40.9844398 C24.3493197,40.7249992 24.7405155,40.638519 25.0230458,40.7682393 L27.218089,41.8708619 Z"
                          id="Path"/>
                    <path d="M80.7249827,40.2925981 C82.9200258,41.3952208 84.8325387,42.6491838 86.4842543,44.0544872 C88.1142369,45.4381706 89.3530236,47.0164344 90.1788815,48.7460386 C91.0047393,50.4756428 91.374202,52.3998275 91.2872696,54.4969726 C91.1786041,56.6157377 90.4831449,58.9290833 89.1791588,61.4802495 C87.9621052,63.8584553 86.5277206,65.7610199 84.8760049,67.1663233 C83.2242893,68.5716267 81.442175,69.5229091 79.507929,69.9985502 C77.5736831,70.4741914 75.5307716,70.5174315 73.3574616,70.1282705 C71.1841515,69.7391096 67.1635279,68.0311254 67.1635279,68.0311254 C66.8809976,67.9014051 66.4246025,67.7068246 66.1420722,67.5554843 L55.3624543,62.063991 C55.0799239,61.9342706 54.9712584,61.5883498 55.1233902,61.3072891 L55.4493867,60.6586875 C55.5797853,60.3776269 55.949248,60.2262865 56.2535114,60.3127667 L58.5789531,60.9829883 C58.8832166,61.0694685 59.2309462,60.9181282 59.3830779,60.6370675 L70.7060233,38.6278541 C70.858155,38.3467934 70.7712226,37.9792525 70.5104254,37.784672 L68.6196456,36.3145085 C68.3805815,36.119928 68.2936491,35.7523871 68.4240477,35.4713264 L68.7500442,34.8227248 C68.9021759,34.5416642 69.2281725,34.4335639 69.5107028,34.5849043 L80.7249827,40.2925981 Z M85.7887951,53.3511098 C86.0930585,51.6431257 86.0495923,50.0864819 85.6801296,48.7027985 C85.2889338,47.3191152 84.5500084,46.0651521 83.4850865,44.9841495 C82.3984314,43.8815268 79.7252601,42.303263 79.7252601,42.303263 C79.4644628,42.1303026 79.0080677,41.892482 78.7255374,41.7627617 L75.9002343,40.3142182 L63.8818297,63.6854949 L66.5767342,65.0691782 C67.8807202,65.7177798 69.1412401,66.2582811 70.3365606,66.6690621 C71.5536142,67.0582231 72.7054686,67.2528035 73.8355898,67.2311835 C75.617704,67.0798431 77.3563521,66.3880014 79.073267,65.1556585 C80.790182,63.9016954 82.3549652,61.8910305 83.7676168,59.1236638 C84.8108056,56.9832786 85.4845317,55.059094 85.7887951,53.3511098 Z"
                          id="Shape"/>
                    <path d="M133.884147,62.063991 C133.818948,61.0262284 133.840681,60.853268 133.818948,60.1181862 C133.775481,59.210144 133.492951,58.8858432 132.580161,58.3021018 C132.210698,58.0859013 131.819502,57.8913208 131.406573,57.7183604 C130.732847,57.4156797 129.972189,57.1778591 129.124598,57.0265187 C127.581548,56.745458 126.12543,56.7670781 124.756245,57.0697588 C123.387059,57.3724396 122.170006,57.977801 121.083351,58.8858432 C119.996696,59.7938854 119.062172,61.0046084 118.279781,62.5180121 C117.497389,64.0314157 116.932328,65.8691202 116.541133,67.9662653 C115.715275,72.4632362 116.041271,75.9440646 117.497389,78.4519907 C118.953507,80.9599168 121.496279,82.5381806 125.082241,83.1867822 C126.12543,83.3813627 127.277284,83.4462228 128.516071,83.4029827 C129.580993,83.3597426 130.776313,83.2084023 132.167232,83.0354418 C132.884424,82.9489616 132.949623,83.4678429 132.949623,83.4678429 L133.036556,84.0299643 C133.036556,84.0299643 133.101755,84.6785658 132.558428,84.8947664 C131.341374,85.3487875 129.950456,85.6730882 128.407405,85.8892888 C126.603558,86.1271094 124.647579,86.0622492 122.496002,85.6730882 C120.453091,85.3055474 118.584044,84.6785658 116.888862,83.8137637 C115.19368,82.9273416 113.824495,81.7814788 112.716107,80.3113152 C111.629452,78.8627717 110.868793,77.0899274 110.455864,75.0144024 C110.042935,72.9388773 110.108135,70.5174315 110.607996,67.7284447 C111.12959,64.9178379 111.977181,62.5828722 113.172502,60.7019276 C114.367822,58.8426031 115.82394,57.3724396 117.540855,56.313057 C119.236037,55.2536744 121.14855,54.6050729 123.278394,54.3240122 C125.408238,54.0429515 127.646747,54.1294317 130.015655,54.5618327 C131.623904,54.8645135 133.101755,55.2752945 134.449207,55.8374158 C135.383731,56.2265768 136.274788,56.6157377 137.100646,57.0265187 C138.2525,57.5886401 137.948237,58.5615425 137.948237,58.5615425 L136.70945,62.6261123 C136.70945,62.6261123 136.405186,63.5125345 135.622795,63.3828142 C134.927336,63.2530938 134.492674,63.1882337 134.492674,63.1882337 C134.492674,63.1882337 133.949346,63.1017535 133.884147,62.063991 Z"
                          id="Path"/>
                    <path d="M181.240573,63.1233735 C180.93631,62.1288511 180.914577,61.9558907 180.718979,61.242429 C180.458181,60.3776269 180.088719,60.1181862 179.067263,59.7722654 C178.676067,59.6425451 178.241405,59.5344448 177.78501,59.4695847 C177.067818,59.3398643 176.263693,59.2966242 175.416102,59.3398643 C173.829586,59.4263446 172.438667,59.7938854 171.178147,60.3992469 C169.939361,61.0262284 168.896172,61.8910305 168.048581,63.0368933 C167.20099,64.1827561 166.592463,65.5880595 166.201267,67.2311835 C165.810072,68.8959275 165.679673,70.7984922 165.810072,72.9388773 C166.070869,77.4790884 167.222723,80.8085764 169.243902,82.9057215 C171.26508,84.9812466 174.090383,85.9325289 177.741544,85.7163284 C178.806466,85.6514682 179.936587,85.4568877 181.131908,85.1109669 C182.153363,84.8299062 183.283485,84.3975052 184.587471,83.9002439 C185.261197,83.6408033 185.456795,84.1380645 185.456795,84.1380645 L185.652392,84.6569458 C185.652392,84.6569458 185.869723,85.2623073 185.391595,85.6082281 C184.326673,86.3433099 183.04442,86.9702914 181.588303,87.5540328 C179.893121,88.2026344 177.980608,88.6134154 175.807298,88.7431357 C173.72092,88.872856 171.764941,88.6998956 169.917628,88.2458745 C168.070314,87.7918534 166.440332,86.9919114 165.02768,85.8460487 C163.615028,84.7001859 162.463174,83.1435421 161.572117,81.2409775 C160.68106,79.3167928 160.159465,76.9385871 159.985601,74.1279802 C159.811736,71.2741333 160.094266,68.8094473 160.811458,66.7123022 C161.528651,64.6151571 162.593573,62.8423128 164.006224,61.4153894 C165.418876,59.9884659 167.114058,58.9074633 169.113503,58.1291414 C171.112948,57.3724396 173.307991,56.8967984 175.720366,56.7670781 C177.350348,56.6589778 178.893398,56.723838 180.327783,56.9616586 C181.327505,57.1129989 182.283762,57.2859594 183.196552,57.4805398 C184.457072,57.7616005 184.391873,58.777743 184.391873,58.777743 L184.152809,63.0152733 C184.152809,63.0152733 184.087609,63.9449355 183.283485,64.0097957 C182.566292,64.0530358 182.153363,64.0746558 182.153363,64.0746558 C182.153363,64.0746558 181.56657,64.0962759 181.240573,63.1233735 Z"
                          id="Path"/>
                    <path d="M227.445145,53.41597 C226.923551,52.5079278 226.880084,52.3349673 226.532355,51.6863658 C226.097693,50.8864238 225.684764,50.7134634 224.619842,50.5837431 C224.206913,50.5188829 223.750518,50.540503 223.294123,50.540503 C222.555197,50.562123 221.772806,50.6918434 220.946948,50.9080439 C219.425631,51.3188249 218.121645,51.9674265 217.03499,52.8322286 C215.948335,53.6970306 215.122477,54.7564132 214.535683,56.0536164 C213.94889,57.3508195 213.644626,58.8426031 213.622893,60.5505873 C213.579427,62.2585714 213.861957,64.139516 214.427018,66.215041 C215.644071,70.6039117 217.469652,73.609099 219.882026,75.2306029 C222.2944,76.8521068 225.271835,77.1764076 228.792597,76.2035053 C229.814053,75.9224446 230.878975,75.4900435 231.96563,74.9279222 C232.900153,74.430661 233.921609,73.7820594 235.095196,73.0253576 C235.703723,72.6361966 236.007987,73.0685977 236.007987,73.0685977 L236.31225,73.5442388 C236.31225,73.5442388 236.65998,74.0847401 236.268784,74.5171412 C235.377727,75.4468034 234.269339,76.3332256 232.965353,77.1980277 C231.444036,78.2141701 229.661921,78.992492 227.55381,79.5762335 C225.554365,80.1167348 223.598386,80.3761754 221.707606,80.3113152 C219.816827,80.2464551 218.056446,79.814054 216.426463,78.992492 C214.79648,78.14931 213.362096,76.8953469 212.079843,75.2089829 C210.79759,73.5226188 209.776134,71.2957534 209.037209,68.5932468 C208.27655,65.8475001 208.015753,63.3611941 208.27655,61.1559488 C208.537347,58.9507034 209.211074,57.0048987 210.275995,55.3185346 C211.340917,53.6321705 212.775302,52.205247 214.579149,51.0377642 C216.361264,49.8919014 218.425908,48.9838592 220.75135,48.3352576 C222.316133,47.9028566 223.83745,47.643416 225.293568,47.5569357 C226.315024,47.4920756 227.293013,47.4704555 228.205804,47.4704555 C229.488056,47.4704555 229.640188,48.486598 229.640188,48.486598 L230.313914,52.6808882 C230.313914,52.6808882 230.444313,53.6105504 229.661921,53.826751 C228.966462,54.0213314 228.553533,54.1294317 228.553533,54.1294317 C228.553533,54.1294317 227.945006,54.3240122 227.445145,53.41597 Z"
                          id="Path"/>
                    <path d="M265.891,45.9138118 L252.177413,39.7304768 C251.894883,39.6007564 251.416755,39.5791364 251.112492,39.6656166 L249.047847,40.2925981 C248.743584,40.3790783 248.374121,40.249358 248.221989,39.9682973 L247.852526,39.3413158 C247.700395,39.0602551 247.787327,38.7359543 248.069857,38.5629939 L257.936685,32.9850204 C258.197482,32.83368 258.545212,32.9201602 258.719077,33.1796009 L259.088539,33.8282024 C259.240671,34.0876431 259.175472,34.476804 258.958141,34.6930045 L257.741087,35.8172473 C257.502023,36.0334478 257.545489,36.3145085 257.82802,36.4442288 L267.607915,41.07092 L268.803235,30.2176537 C268.846702,29.9149729 268.629371,29.7203925 268.325107,29.8284927 L266.608192,30.368994 C266.303929,30.4554742 265.934466,30.3257539 265.782334,30.0446932 L265.412872,29.4177117 C265.26074,29.136651 265.347672,28.7907302 265.630203,28.6393898 L273.454119,24.2072791 C273.714916,24.0559387 274.062646,24.1424189 274.214778,24.4234796 L274.58424,25.0504611 C274.736372,25.3099018 274.671173,25.6990627 274.432109,25.9152632 L272.649994,27.471907 C272.41093,27.6664875 272.193599,28.0988885 272.171866,28.4015693 L270.650549,42.2167828 L285.841986,49.2432998 C286.124517,49.3730202 286.602645,49.3946402 286.906908,49.30816 L289.015019,48.6595584 C289.319282,48.5730782 289.688745,48.7027985 289.840877,48.9838592 L290.21034,49.6108407 C290.362471,49.8702814 290.275539,50.2162022 289.993009,50.3675426 L280.082715,55.9887562 C279.800184,56.1400966 279.474188,56.0536164 279.322056,55.7725557 L278.952593,55.1455742 C278.800462,54.8645135 278.865661,54.4753525 279.104725,54.2807721 L280.430444,53.0916692 C280.669508,52.8754687 280.626042,52.594408 280.343512,52.4646877 L268.933634,47.0164344 L267.542716,59.7290253 C267.499249,60.031706 267.71658,60.2046664 268.020844,60.1181862 L269.650826,59.620925 C269.95509,59.5344448 270.324553,59.6641651 270.476684,59.9452258 L270.846147,60.5722073 C270.998279,60.831648 270.911346,61.1775688 270.628816,61.3289092 L262.761433,65.78264 C262.500636,65.9339803 262.152907,65.8475001 262.000775,65.5664395 L261.631312,64.9394579 C261.479181,64.6583973 261.54438,64.2908564 261.783444,64.0746558 L263.565558,62.5180121 C263.804622,62.3234316 264.021953,61.8910305 264.06542,61.5883498 L265.891,45.9138118 Z"
                          id="Path"/>
                    <path d="M299.881569,4.42493107 C300.077167,4.66275165 300.0989,5.0519126 299.903302,5.28973317 L298.425452,7.19229779 C298.229854,7.43011837 298.251587,7.84089936 298.447185,8.05709989 L314.899142,26.6071049 C315.09474,26.8449255 315.485936,26.9097856 315.768466,26.7368252 L317.83311,25.5261023 C318.093908,25.3747619 318.485103,25.418002 318.702435,25.6558226 L319.180563,26.1963239 C319.376161,26.4341445 319.354428,26.7800653 319.137097,26.9962659 L310.68292,34.4119438 C310.443856,34.6065243 310.096127,34.6065243 309.878796,34.3687037 L309.400667,33.8282024 C309.183336,33.5903819 309.183336,33.2012209 309.378934,32.9634003 L310.856785,31.0608357 C311.052383,30.8230151 311.03065,30.4338542 310.835052,30.1960336 L294.383095,11.6460286 C294.187497,11.408208 293.796301,11.3433479 293.513771,11.5163083 L291.449126,12.7270312 C291.166596,12.8783716 290.797133,12.8135114 290.579802,12.5973109 L290.101674,12.0568096 C289.906076,11.818989 289.927809,11.4730682 290.14514,11.2568677 L298.599316,3.84118966 C298.838381,3.62498913 299.18611,3.66822924 299.403441,3.88442976 L299.881569,4.42493107 Z"
                          id="Path"/>
                </g>
                <path d="M109.453117,107.279695 C109.758973,107.321321 110.195911,107.196443 110.392533,106.988314 L115.11146,102.263775 C115.329929,102.034832 115.308082,101.701825 115.089613,101.493696 L114.565288,101.014998 C114.324972,100.806868 113.931728,100.786056 113.691413,100.952559 L111.899968,102.138897 C111.637805,102.305401 111.179021,102.409465 110.873164,102.367839 L96.7600755,100.18248 C96.4542191,100.140854 96.3012909,99.8702859 96.4323722,99.5997175 C96.4323722,99.5997175 98.1582763,96.0615166 98.0927356,94.2091643 C98.027195,92.3568121 97.1533195,90.6917763 95.4929561,89.1724312 C94.3132242,88.090158 93.1116455,87.4657696 91.9100667,87.299266 C90.7084879,87.1327624 89.528756,87.2576401 88.370871,87.6530861 C87.2129861,88.0485321 86.1206417,88.6729205 85.0501443,89.4846254 C83.9796468,90.2963304 82.4722116,91.7116107 82.4722116,91.7116107 C82.2537428,91.9197402 81.8823457,92.2735603 81.6638768,92.4816898 L73.3620599,100.786056 C73.143591,101.014998 73.1654379,101.348005 73.3839068,101.556135 L73.9082321,102.034832 C74.1267009,102.242962 74.5199449,102.263775 74.7821075,102.097271 L76.7701742,100.723617 C77.0323369,100.557113 77.4255808,100.577926 77.6440497,100.786056 L95.7988125,117.249096 C96.0172814,117.457226 96.0609752,117.831859 95.908047,118.081614 L94.5753869,120.038031 C94.4006118,120.287787 94.4443055,120.66242 94.6846213,120.870549 L95.2307935,121.349247 C95.4492623,121.557376 95.8206594,121.536563 96.0391283,121.328434 L103.81662,113.544392 C104.035089,113.336262 104.013242,112.982442 103.794773,112.774313 L103.248601,112.274802 C103.030132,112.066673 102.636888,112.04586 102.374725,112.212363 L100.408506,113.544392 C100.146343,113.710895 99.753099,113.690082 99.5346301,113.481953 L91.1672725,105.90604 L92.4125451,104.657264 C92.631014,104.449134 93.0679517,104.303444 93.3738081,104.365882 L109.453117,107.279695 Z M90.1623158,104.261818 C89.9438469,104.49076 89.7909187,104.615638 89.7909187,104.615638 L80.7681545,96.4777755 L82.3848241,94.8751786 C82.603293,94.6462362 82.9528432,94.3132291 83.1931589,94.1050996 C83.1931589,94.1050996 84.1762688,93.1893299 84.8753692,92.6898192 C85.5744696,92.2111215 86.2735699,91.8781143 86.9945172,91.7324237 C87.7154644,91.5867331 88.4582586,91.6283589 89.2228996,91.8781143 C89.9875407,92.1278697 90.7740286,92.6273804 91.6042103,93.3558335 C93.395655,94.9792434 94.2476836,96.5610273 94.1384491,98.1011854 C94.0510616,99.6413434 91.9974542,102.305401 91.9974542,102.305401 C91.8226791,102.555156 91.473129,102.929789 91.276507,103.137918 L90.1623158,104.261818 Z"
                      id="Shape"/>
            </g>
        </g>
    </g>
</svg>